<svg width="289" height="29" viewBox="0 0 289 29" fill="none" xmlns="http://www.w3.org/2000/svg">
<g clip-path="url(#clip0_519_7648)">
<path d="M77.8791 0.941867L72.0295 11.0547L66.2295 0.941867H77.8791Z" fill="url(#paint0_linear_519_7648)"/>
<path d="M107.722 16.706L114.811 29H100.633L107.722 16.706Z" fill="url(#paint1_linear_519_7648)"/>
<path d="M150.849 1.52588e-05L143.413 12.9385L135.928 1.52588e-05L150.849 1.52588e-05Z" fill="url(#paint2_linear_519_7648)"/>
<path d="M1.38803 3.91621L0.694017 5.10596L0 3.91621H1.38803Z" fill="url(#paint3_linear_519_7648)"/>
<path d="M36.3867 21.5641L39.3115 26.5709H33.4619L36.3867 21.5641Z" fill="url(#paint4_linear_519_7648)"/>
<path d="M179.056 18.4906L184.658 28.1077H173.504L179.056 18.4906Z" fill="url(#paint5_linear_519_7648)"/>
<path d="M220.102 1.18974L214.748 10.5094L209.395 1.18974H220.102Z" fill="url(#paint6_linear_519_7648)"/>
<path d="M250.441 22.4564L252.573 26.1248H248.31L250.441 22.4564Z" fill="url(#paint7_linear_519_7648)"/>
<path d="M288.017 3.17264L286.084 6.54358L284.15 3.17264L288.017 3.17264Z" fill="url(#paint8_linear_519_7648)"/>
</g>
<defs>
<linearGradient id="paint0_linear_519_7648" x1="367.532" y1="298.576" x2="-380.47" y2="-449.426" gradientUnits="userSpaceOnUse">
<stop stop-color="#B81F26"/>
<stop offset="0.59" stop-color="#D4151E"/>
<stop offset="1" stop-color="#E4101A"/>
</linearGradient>
<linearGradient id="paint1_linear_519_7648" x1="373.778" y1="292.429" x2="-374.372" y2="-455.672" gradientUnits="userSpaceOnUse">
<stop stop-color="#B81F26"/>
<stop offset="0.59" stop-color="#D4151E"/>
<stop offset="1" stop-color="#E4101A"/>
</linearGradient>
<linearGradient id="paint2_linear_519_7648" x1="403.372" y1="262.735" x2="-344.63" y2="-485.267" gradientUnits="userSpaceOnUse">
<stop stop-color="#B81F26"/>
<stop offset="0.59" stop-color="#D4151E"/>
<stop offset="1" stop-color="#E4101A"/>
</linearGradient>
<linearGradient id="paint3_linear_519_7648" x1="330.352" y1="333.822" x2="-415.468" y2="-411.999" gradientUnits="userSpaceOnUse">
<stop stop-color="#B81F26"/>
<stop offset="0.59" stop-color="#D4151E"/>
<stop offset="1" stop-color="#E4101A"/>
</linearGradient>
<linearGradient id="paint4_linear_519_7648" x1="338.334" y1="327.477" x2="-409.321" y2="-420.178" gradientUnits="userSpaceOnUse">
<stop stop-color="#B81F26"/>
<stop offset="0.59" stop-color="#D4151E"/>
<stop offset="1" stop-color="#E4101A"/>
</linearGradient>
<linearGradient id="paint5_linear_519_7648" x1="409.519" y1="256.538" x2="-338.383" y2="-491.414" gradientUnits="userSpaceOnUse">
<stop stop-color="#B81F26"/>
<stop offset="0.59" stop-color="#D4151E"/>
<stop offset="1" stop-color="#E4101A"/>
</linearGradient>
<linearGradient id="paint6_linear_519_7648" x1="438.916" y1="227.34" x2="-309.284" y2="-520.86" gradientUnits="userSpaceOnUse">
<stop stop-color="#B81F26"/>
<stop offset="0.59" stop-color="#D4151E"/>
<stop offset="1" stop-color="#E4101A"/>
</linearGradient>
<linearGradient id="paint7_linear_519_7648" x1="445.46" y1="220.4" x2="-302.046" y2="-527.107" gradientUnits="userSpaceOnUse">
<stop stop-color="#B81F26"/>
<stop offset="0.59" stop-color="#D4151E"/>
<stop offset="1" stop-color="#E4101A"/>
</linearGradient>
<linearGradient id="paint8_linear_519_7648" x1="474.063" y1="191.846" x2="-273.542" y2="-555.708" gradientUnits="userSpaceOnUse">
<stop stop-color="#B81F26"/>
<stop offset="0.59" stop-color="#D4151E"/>
<stop offset="1" stop-color="#E4101A"/>
</linearGradient>
<clipPath id="clip0_519_7648">
<rect width="29" height="288.017" fill="white" transform="matrix(0 -1 1 0 0 29)"/>
</clipPath>
</defs>
</svg>
