<svg width="25" height="25" viewBox="0 0 25 25" fill="none" xmlns="http://www.w3.org/2000/svg">
<path d="M17.958 14.9745C17.7554 16.106 17.211 17.1483 16.3981 17.9611C15.5852 18.7738 14.5427 19.318 13.4111 19.5203C13.3682 19.5272 13.3248 19.5308 13.2812 19.5311C13.0853 19.531 12.8965 19.4573 12.7523 19.3246C12.6081 19.1919 12.5191 19.0098 12.5029 18.8145C12.4867 18.6192 12.5444 18.425 12.6647 18.2703C12.785 18.1156 12.9591 18.0117 13.1523 17.9793C14.7705 17.7069 16.1436 16.3338 16.418 14.7127C16.4527 14.5084 16.5671 14.3262 16.7362 14.2062C16.9052 14.0863 17.115 14.0384 17.3193 14.0731C17.5237 14.1078 17.7059 14.2223 17.8258 14.3913C17.9458 14.5603 17.9937 14.7701 17.959 14.9745H17.958ZM21.0938 14.0623C21.0938 16.3415 20.1883 18.5274 18.5767 20.139C16.9651 21.7507 14.7792 22.6561 12.5 22.6561C10.2208 22.6561 8.03494 21.7507 6.4233 20.139C4.81166 18.5274 3.90625 16.3415 3.90625 14.0623C3.90625 11.3358 4.98047 8.54769 7.0957 5.77621C7.16266 5.68845 7.24745 5.61588 7.34449 5.56327C7.44153 5.51067 7.54862 5.47922 7.6587 5.47101C7.76877 5.4628 7.87934 5.47801 7.98311 5.51563C8.08689 5.55326 8.18151 5.61244 8.26074 5.68929L10.6162 7.97543L12.7646 2.07601C12.8076 1.95835 12.8782 1.85273 12.9704 1.76806C13.0627 1.68339 13.174 1.62215 13.295 1.58951C13.4159 1.55686 13.5429 1.55376 13.6652 1.58048C13.7876 1.60719 13.9017 1.66293 13.998 1.74301C16.1338 3.51547 21.0938 8.25668 21.0938 14.0623ZM19.5312 14.0623C19.5312 9.56137 16.0361 5.67172 13.8467 3.67855L11.6719 9.64242C11.6272 9.76491 11.5527 9.87428 11.4549 9.96057C11.3572 10.0469 11.2394 10.1073 11.1124 10.1364C10.9853 10.1656 10.8529 10.1624 10.7274 10.1273C10.6018 10.0922 10.4871 10.0262 10.3936 9.93539L7.81836 7.43734C6.25879 9.68832 5.46875 11.9139 5.46875 14.0623C5.46875 15.9271 6.20954 17.7156 7.52816 19.0342C8.84677 20.3528 10.6352 21.0936 12.5 21.0936C14.3648 21.0936 16.1532 20.3528 17.4718 19.0342C18.7905 17.7156 19.5312 15.9271 19.5312 14.0623Z" fill="#E4101A"/>
</svg>
