<svg width="42" height="42" viewBox="0 0 42 42" fill="none" xmlns="http://www.w3.org/2000/svg">
<path d="M21.0003 0.166687C9.52116 0.166687 0.166992 9.52085 0.166992 21C0.166992 32.4792 9.52116 41.8334 21.0003 41.8334C32.4795 41.8334 41.8337 32.4792 41.8337 21C41.8337 9.52085 32.4795 0.166687 21.0003 0.166687ZM2.27116 21C2.27116 18.2917 2.85449 15.7084 3.89616 13.375L12.8337 37.8542C6.58366 34.8125 2.27116 28.4167 2.27116 21ZM21.0003 39.7292C19.167 39.7292 17.3962 39.4584 15.7087 38.9584L21.3337 22.625L27.0837 38.3959C27.1253 38.4792 27.167 38.5834 27.2087 38.6459C25.2712 39.3542 23.1878 39.7292 21.0003 39.7292ZM23.5837 12.2084C24.7087 12.1459 25.7295 12.0209 25.7295 12.0209C26.7295 11.8959 26.6253 10.4167 25.6045 10.4792C25.6045 10.4792 22.5628 10.7084 20.6045 10.7084C18.7712 10.7084 15.667 10.4792 15.667 10.4792C14.667 10.4375 14.542 11.9792 15.5628 12.0417C15.5628 12.0417 16.5212 12.1667 17.5212 12.2292L20.4378 20.2292L16.3337 32.5209L9.52116 12.2084C10.6462 12.1667 11.667 12.0417 11.667 12.0417C12.667 11.9167 12.5628 10.4375 11.542 10.5C11.542 10.5 8.50033 10.7292 6.54199 10.7292C6.18783 10.7292 5.77116 10.7292 5.33366 10.7084C8.70866 5.62502 14.4587 2.27085 21.0003 2.27085C25.8753 2.27085 30.3128 4.12502 33.6462 7.18752C33.5628 7.18752 33.4795 7.16669 33.3962 7.16669C31.5628 7.16669 30.2503 8.77085 30.2503 10.5C30.2503 12.0417 31.1462 13.3542 32.0837 14.8959C32.792 16.1459 33.6253 17.75 33.6253 20.0625C33.6253 21.6667 33.0003 23.5209 32.2087 26.125L30.3337 32.375L23.5837 12.2084ZM37.4378 12.0209C39.7778 16.3034 40.3535 21.3304 39.0421 26.0311C37.7307 30.7317 34.636 34.7347 30.417 37.1875L36.1462 20.6459C37.2087 17.9792 37.5628 15.8334 37.5628 13.9375C37.5628 13.25 37.5212 12.6042 37.4378 12.0209Z" fill="black"/>
</svg>
