<svg width="486" height="241" viewBox="0 0 486 241" fill="none" xmlns="http://www.w3.org/2000/svg">
<path d="M424.616 48.0154H455.976V166.218H485.225V191.246H455.976V237.985H426.726V191.246H337.169V171.646L424.616 48.0154ZM412.253 107.72L370.64 166.218H426.726V109.831L428.536 79.3754H427.933L412.253 107.72Z" fill="black"/>
<path d="M243.971 45C254.826 45 264.777 46.9097 273.823 50.7292C283.07 54.3477 291.011 60.1774 297.645 68.2185C304.279 76.0585 309.505 86.2103 313.325 98.6739C317.144 110.936 319.054 125.712 319.054 143C319.054 160.288 316.943 175.064 312.722 187.326C308.701 199.589 303.173 209.741 296.137 217.782C289.302 225.823 281.362 231.753 272.315 235.572C263.269 239.191 253.721 241 243.669 241C232.814 241 222.763 239.191 213.515 235.572C204.469 231.753 196.529 225.923 189.694 218.083C183.06 210.042 177.833 199.89 174.014 187.628C170.194 175.164 168.285 160.288 168.285 143C168.285 126.516 170.295 112.143 174.315 99.88C178.537 87.4164 184.065 77.1641 190.9 69.1231C197.936 61.0821 205.977 55.0513 215.023 51.0308C224.27 47.0103 233.92 45 243.971 45ZM200.549 143C200.549 158.077 201.755 170.44 204.168 180.089C206.58 189.537 209.796 197.076 213.817 202.705C217.837 208.132 222.461 211.952 227.688 214.163C232.914 216.173 238.342 217.178 243.971 217.178C249.6 217.178 255.027 216.073 260.254 213.862C265.481 211.449 270.004 207.429 273.823 201.8C277.844 196.171 280.96 188.633 283.171 179.185C285.583 169.535 286.789 157.474 286.789 143C286.789 127.923 285.583 115.661 283.171 106.212C280.759 96.5631 277.542 89.0246 273.522 83.5969C269.702 77.9682 265.179 74.1487 259.952 72.1385C254.726 69.9272 249.298 68.8215 243.669 68.8215C238.041 68.8215 232.613 70.0277 227.386 72.44C222.16 74.6513 217.536 78.5713 213.515 84.2C209.696 89.8287 206.58 97.4677 204.168 107.117C201.755 116.565 200.549 128.526 200.549 143Z" fill="black"/>
<path d="M87.4462 48.0154H118.806V166.218H148.055V191.246H118.806V237.985H89.5569V191.246H0V171.646L87.4462 48.0154ZM75.0831 107.72L33.4708 166.218H89.5569V109.831L91.3662 79.3754H90.7631L75.0831 107.72Z" fill="black"/>
<g clip-path="url(#clip0_383_325)">
<path d="M298.103 129.305L293.251 128.548L263.186 118.831L245.599 113.74C241.489 112.316 236.165 111.823 230.384 114.775C222.079 119.019 199.155 140.39 199.155 140.39L215.66 157.441L207.882 191.947C216.582 216.729 233.614 219.569 233.614 219.569C233.614 219.569 244.802 220.576 258.015 215.527C273.834 209.484 290.436 195.322 292.516 189.231C293.764 185.578 294.789 177.896 295.614 169.221L320.653 158.997L327.44 124.29L298.096 129.305H298.103Z" fill="#B81F26" stroke="black" stroke-miterlimit="10"/>
<path d="M261.529 190.731C261.529 190.731 261.453 190.815 261.287 190.947C261.114 191.072 260.878 191.28 260.538 191.495C259.873 191.954 258.861 192.551 257.53 193.114C254.895 194.253 250.785 195.107 246.424 194.163C242.064 193.204 238.681 190.711 236.761 188.571C235.784 187.502 235.111 186.536 234.702 185.842C234.48 185.501 234.356 185.217 234.252 185.029C234.155 184.842 234.106 184.737 234.12 184.731C234.148 184.717 234.376 185.099 234.82 185.765C235.264 186.432 235.964 187.363 236.948 188.398C238.889 190.461 242.231 192.871 246.501 193.808C250.771 194.739 254.812 193.94 257.433 192.878C258.757 192.35 259.783 191.794 260.462 191.377C261.141 190.961 261.509 190.704 261.529 190.731Z" fill="#B81F26" stroke="black" stroke-miterlimit="10"/>
<path d="M252.019 120.262C252.019 120.262 252.039 120.318 252.074 120.429C252.109 120.561 252.15 120.72 252.199 120.922C252.303 121.352 252.448 121.998 252.622 122.825C252.954 124.485 253.454 126.895 253.613 129.93C253.675 131.444 253.648 133.125 253.329 134.889C253.01 136.654 252.386 138.501 251.353 140.237C250.313 141.974 248.871 143.557 247.242 145.009C245.613 146.468 243.811 147.822 241.974 149.218C238.071 152.163 234.266 154.816 230.862 157.233C227.458 159.643 224.464 161.817 222.065 163.637L221.989 163.692L221.913 163.637C219.771 161.901 218.148 160.4 217.095 159.296C216.575 158.74 216.201 158.289 215.965 157.962C215.847 157.803 215.778 157.671 215.722 157.58C215.674 157.49 215.646 157.448 215.653 157.441C215.667 157.435 215.785 157.608 216.02 157.914C216.27 158.219 216.651 158.657 217.185 159.192C218.252 160.261 219.902 161.727 222.058 163.436H221.906C224.283 161.588 227.264 159.386 230.661 156.955C234.051 154.524 237.849 151.857 241.745 148.919C243.575 147.523 245.378 146.176 246.993 144.738C248.608 143.3 250.029 141.752 251.055 140.057C252.074 138.362 252.698 136.556 253.017 134.827C253.343 133.09 253.384 131.43 253.343 129.93C253.218 126.916 252.76 124.506 252.469 122.839C252.317 122.033 252.199 121.394 252.109 120.922C252.074 120.72 252.046 120.554 252.019 120.422C251.998 120.311 251.998 120.248 251.998 120.248L252.019 120.262Z" fill="#B81F26" stroke="black" stroke-miterlimit="10"/>
<path d="M382.57 135.896C389.613 129.854 391.991 118.97 388.123 110.524C384.816 110.184 381.51 109.844 378.203 109.496C383.236 106.85 386.272 100.828 385.413 95.1956C380.068 100.974 370.814 102.683 363.764 99.1893C359.133 96.8972 355.376 92.6257 350.288 91.7298C345.671 90.9171 341.13 93.0841 336.708 94.6608C332.292 96.2374 326.934 97.1056 323.273 94.1676C320.369 91.8409 319.475 87.7569 319.662 84.041C319.849 80.3182 320.923 76.6927 321.152 72.9768C321.603 65.684 318.449 58.3356 313.118 53.3765C311.447 48.084 307.448 43.5208 302.325 41.3537C296.127 38.7283 288.551 39.7215 283.234 43.8472C281.064 45.528 279.234 47.702 276.773 48.9174C273.993 50.2927 270.763 50.2927 267.754 51.0358C264.746 51.779 261.592 53.7724 261.266 56.8631L260.053 63.1905C259.852 63.642 259.637 64.0934 259.387 64.5241C256.83 69.0178 251.603 71.9697 250.466 77.0121C249.828 79.839 250.618 82.902 249.669 85.6385C248.414 89.2433 244.532 91.2714 242.723 94.626C240.241 99.2379 241.926 107.309 245.898 110.719C249.87 114.129 258.056 117.734 263.172 118.824C264.559 113.497 265.786 107.802 266.971 101.974C269.058 103.982 271.241 105.892 273.418 107.788C279.116 112.747 284.932 117.782 288.883 124.221C296.391 136.459 296.516 152.684 305.971 163.484C307.822 165.603 310.075 167.492 312.764 168.304C315.454 169.124 318.643 168.686 320.632 166.7C322.982 164.352 323.287 160.393 325.88 158.331C329.332 155.587 334.379 157.775 338.094 160.157C340.784 161.88 343.467 163.699 346.517 164.644C349.567 165.589 353.109 165.526 355.695 163.665C358.287 161.803 359.424 157.83 357.553 155.24C356.804 154.205 355.688 153.483 354.946 152.441C354.204 151.399 353.989 149.753 355.002 148.982C356.125 148.128 357.691 148.954 358.911 149.669C364.838 153.163 372.346 153.83 378.792 151.427C385.239 149.024 390.487 143.606 392.698 137.084C389.295 137.612 385.745 137.195 382.557 135.896H382.57Z" fill="black" stroke="black" stroke-miterlimit="10"/>
<path d="M376.394 81.3879C376.394 81.3879 376.727 81.6171 377.288 82.1588C377.836 82.7006 378.647 83.541 379.326 84.8606C379.659 85.5205 379.95 86.3053 380.089 87.2013C380.214 88.0903 380.165 89.1182 379.749 90.1045C379.347 91.0838 378.647 92.0423 377.621 92.6952C377.108 93.0147 376.512 93.2578 375.874 93.3272C375.229 93.4036 374.557 93.2995 373.933 93.0425C371.361 91.9937 370.072 89.0141 367.285 87.6875C364.575 86.2497 361.109 86.1525 357.774 86.9165C354.405 87.6875 351.203 89.4933 347.917 91.3408C344.645 93.1744 341.151 95.1678 337.138 95.8554C335.155 96.2166 333.11 96.2444 331.176 95.8137C330.212 95.5845 329.284 95.2442 328.417 94.7858C327.557 94.3205 326.781 93.7231 326.088 93.0564C324.715 91.702 323.752 90.0351 323.1 88.3195C322.442 86.604 322.081 84.8328 321.88 83.0965C321.513 79.6098 321.804 76.2968 321.838 73.213C321.901 70.1361 321.721 67.2398 321 64.7255C320.66 63.4684 320.196 62.3015 319.676 61.2458C319.163 60.1831 318.594 59.2316 317.998 58.3773C316.813 56.6687 315.558 55.3699 314.449 54.4183C313.347 53.4529 312.383 52.8417 311.738 52.418C311.42 52.2305 311.17 52.0777 310.983 51.9735C310.816 51.8693 310.726 51.8137 310.733 51.8068C310.733 51.8068 310.83 51.8485 311.004 51.9388C311.191 52.0429 311.447 52.1819 311.78 52.3555C312.439 52.7653 313.416 53.3556 314.539 54.3141C315.669 55.2587 316.944 56.5506 318.158 58.2661C318.768 59.1205 319.357 60.0789 319.877 61.1486C320.41 62.2112 320.882 63.385 321.242 64.656C321.991 67.2051 322.185 70.1222 322.137 73.213C322.116 76.3037 321.838 79.6167 322.213 83.0548C322.414 84.7703 322.781 86.5137 323.426 88.1945C324.071 89.8684 325.006 91.4936 326.337 92.7994C327.01 93.4384 327.752 94.0218 328.583 94.4663C329.415 94.9039 330.316 95.2373 331.252 95.4595C333.131 95.8763 335.12 95.8554 337.068 95.4943C341.006 94.8205 344.458 92.8619 347.737 91.0283C351.023 89.1877 354.253 87.368 357.691 86.5901C359.396 86.215 361.116 86.0275 362.772 86.1594C363.604 86.2011 364.408 86.3678 365.192 86.5553C365.961 86.7915 366.724 87.0415 367.41 87.4235C370.287 88.8335 371.576 91.827 374.016 92.8063C375.202 93.3203 376.519 93.1258 377.489 92.5007C378.474 91.8895 379.16 90.9727 379.555 90.0281C379.964 89.0835 380.019 88.0973 379.908 87.2221C379.784 86.347 379.513 85.576 379.188 84.9231C378.529 83.6174 377.746 82.7631 377.219 82.2074C376.949 81.9296 376.734 81.7282 376.588 81.5962C376.442 81.4643 376.366 81.3948 376.373 81.3879H376.394Z" fill="black"/>
<path d="M376.394 81.3879C378.286 82.8603 379.853 84.9718 380.144 87.4166C380.699 91.1602 376.616 95.0428 373.094 92.6605C371.028 91.3617 369.767 89.0835 367.611 87.9306C364.415 86.1317 360.519 86.2636 357.074 87.1943C350.059 89.2016 344.486 94.7372 337.193 96.0082C328.618 97.6751 322.996 92.4868 321.811 84.173C321.048 79.3389 321.838 74.4423 321.52 69.6082C321.235 62.3432 316.944 55.5852 310.588 52.1124L310.532 52.0707C310.22 51.8902 311.295 51.1192 310.907 51.4873L310.976 51.522L311.087 51.5776C311.212 51.6471 311.565 51.8346 311.697 51.904C317.846 55.3699 321.942 62.114 322.338 69.1498C322.719 73.977 321.922 78.818 322.552 83.6035C323.537 91.6673 328.646 96.8903 337.054 95.3206C344.271 94.0913 349.844 88.646 356.825 86.7012C360.298 85.7636 364.2 85.6316 367.465 87.3402C369.691 88.4029 371.015 90.6046 372.9 92.0771C376.165 94.8067 380.387 91.2505 379.943 87.486C379.728 85.0343 378.169 82.9784 376.408 81.3809L376.394 81.3879ZM376.394 81.3879C378.169 82.9853 379.749 85.0343 379.978 87.493C380.435 91.313 376.186 94.9317 372.831 92.1743C370.924 90.7088 369.607 88.5348 367.389 87.4791C364.159 85.8122 360.305 85.965 356.88 86.9165C349.906 88.9099 344.354 94.3969 337.11 95.6679C328.493 97.3279 323.128 91.959 322.074 83.6729C321.409 78.8597 322.178 74.0047 321.769 69.1984C321.339 62.3501 317.346 55.8422 311.357 52.5083L310.962 52.2999L310.768 52.1958L310.671 52.1471L310.636 52.1332C310.234 52.4944 311.295 51.6679 310.976 51.5429C317.444 55.1198 321.845 62.1626 322.074 69.5804C322.372 74.4354 321.554 79.3042 322.275 84.1105C323.391 92.209 328.757 97.2515 337.131 95.6818C344.395 94.4455 349.99 88.9516 357.019 86.9999C360.513 86.0761 364.471 85.965 367.687 87.8125C369.857 88.9863 371.112 91.2714 373.157 92.5771C376.56 94.9456 380.664 91.1047 380.103 87.4305C379.825 84.9995 378.286 82.8812 376.394 81.3948V81.3879Z" fill="black"/>
<path d="M263.082 121.478C262.659 117.463 259.006 114.851 255.478 113.594C251.818 112.33 247.901 112.198 244.213 110.955C236.248 108.58 232.394 99.2309 236.616 91.9867C239.18 87.2777 244.65 85.5621 248.65 82.4714C256.497 76.8455 248.483 66.9411 259.02 63.2739C261.488 62.4196 264.067 62.0862 266.465 61.2597C268.884 60.4748 270.936 58.9051 272.607 56.9951C277.605 51.3762 280.309 42.4025 288.516 40.6245L289.022 40.5342L288.897 40.8884C288.627 41.6316 288.71 41.1523 288.655 41.3121C288.419 41.3885 287.996 41.4996 287.747 41.583C280.489 44.1111 278.063 52.2096 273.3 57.5508C271.609 59.5025 269.46 61.1833 266.978 62.0237C264.524 62.9058 261.959 63.2322 259.561 64.024C249.398 67.2884 257.315 77.0677 249.378 82.9436C245.419 86.1247 240.054 87.6111 237.371 92.1812C233.115 99.1476 236.9 108.225 244.629 110.524C248.255 111.754 252.185 111.969 255.783 113.337C259.235 114.706 262.93 117.435 263.082 121.471V121.478ZM263.082 121.478C262.992 118.859 261.204 116.65 259.124 115.227C254.847 112.17 249.391 112.344 244.546 110.767C239.52 109.316 235.597 104.739 235.25 99.4601C234.959 95.5637 236.567 91.5561 239.506 88.9724C242.39 86.4095 246.12 84.9787 249.086 82.5825C255.824 77.5122 250.591 70.0805 255.921 65.3298C258.999 62.8363 263.256 62.8085 266.784 61.475C269.176 60.6485 271.193 59.0579 272.85 57.1479C277.425 51.9179 279.851 44.2709 286.61 41.2704C287.185 41.0204 287.802 40.8398 288.398 40.6661H288.405C288.371 40.812 288.474 40.3397 288.218 41.062L288.599 41.326C277.938 43.7708 276.898 58.5579 266.652 61.8153C262.098 63.385 255.658 63.253 253.911 68.6636C253.128 71.0668 253.364 73.6922 252.948 76.2759C252.317 81.9018 246.605 84.3536 242.383 86.9512C233.773 91.695 232.65 103.322 240.879 109.052C245.232 111.962 250.715 111.761 255.526 113.483C259.062 114.782 262.708 117.456 263.089 121.491L263.082 121.478Z" fill="black"/>
<path d="M318.428 59.1274C318.428 59.1274 318.234 59.0996 317.894 58.9885C317.555 58.8843 317.083 58.6898 316.508 58.4259C315.357 57.898 313.839 57.0021 312.369 55.738C310.907 54.4739 309.791 53.0987 309.097 52.043C308.751 51.5151 308.494 51.0706 308.335 50.7511C308.176 50.4385 308.099 50.2579 308.12 50.2441C308.176 50.2163 308.564 50.89 309.305 51.8971C310.04 52.9042 311.163 54.2239 312.598 55.4671C314.04 56.7034 315.51 57.6202 316.612 58.1967C317.714 58.7801 318.435 59.0649 318.414 59.1205L318.428 59.1274Z" fill="#455A64"/>
<path d="M341.47 106.503C341.47 106.503 341.033 106.399 340.25 106.225C339.467 106.051 338.316 105.878 336.888 105.808C335.453 105.746 333.748 105.808 331.848 105.954C329.949 106.086 327.856 106.281 325.644 106.232C323.433 106.176 321.312 105.843 319.523 105.079C317.742 104.322 316.348 103.204 315.419 102.079C314.49 100.946 314.026 99.8213 313.839 99.0295C313.749 98.6336 313.7 98.3211 313.693 98.1058C313.679 97.8905 313.673 97.7793 313.693 97.7793C313.735 97.7793 313.756 98.2238 313.978 98.9948C314.199 99.7588 314.685 100.835 315.613 101.912C316.535 102.988 317.915 104.051 319.648 104.773C321.388 105.496 323.468 105.815 325.644 105.871C327.828 105.919 329.914 105.739 331.814 105.621C333.713 105.496 335.439 105.461 336.888 105.558C338.337 105.656 339.494 105.871 340.271 106.093C340.659 106.204 340.957 106.295 341.158 106.378C341.359 106.454 341.463 106.496 341.456 106.51L341.47 106.503Z" fill="black" stroke="black" stroke-miterlimit="10"/>
<path d="M382.321 138.084C382.321 138.084 382.258 138.119 382.12 138.175C381.981 138.23 381.78 138.32 381.503 138.369C380.948 138.501 380.075 138.57 379.021 138.258C377.981 137.938 376.775 137.272 375.694 136.153C374.585 135.049 373.767 133.445 373.018 131.66C372.262 129.882 371.625 127.833 370.391 125.95C369.808 124.985 369.025 124.117 368.193 123.263C367.306 122.457 366.349 121.672 365.254 121.033C360.901 118.408 355.182 117.324 349.345 117.671C343.473 117.977 337.956 119.13 332.847 119.491C327.745 119.949 323.059 119.387 319.391 118.095C315.704 116.831 313.125 114.858 311.683 113.254C311.302 112.872 311.017 112.476 310.761 112.15C310.498 111.823 310.303 111.532 310.158 111.281C310.019 111.052 309.908 110.872 309.818 110.726C309.742 110.601 309.707 110.531 309.714 110.531C309.714 110.531 309.763 110.587 309.853 110.705C309.943 110.844 310.068 111.018 310.22 111.24C310.373 111.476 310.574 111.768 310.844 112.08C311.108 112.4 311.399 112.782 311.787 113.157C313.25 114.72 315.821 116.63 319.475 117.852C323.114 119.095 327.745 119.63 332.819 119.151C337.9 118.776 343.418 117.616 349.331 117.303C355.216 116.956 361.012 118.053 365.434 120.741C366.543 121.394 367.521 122.2 368.422 123.026C369.275 123.902 370.072 124.797 370.654 125.784C371.909 127.722 372.526 129.784 373.268 131.562C373.988 133.34 374.779 134.924 375.846 136.015C376.893 137.119 378.058 137.8 379.07 138.126C380.089 138.452 380.948 138.411 381.496 138.3C382.05 138.195 382.321 138.057 382.328 138.084H382.321Z" fill="black" stroke="black" stroke-miterlimit="10"/>
<path d="M273.293 59.1274C270.604 59.0579 268.309 61.0652 268.011 63.7392L262.403 122.228C261.432 130.451 272.17 148.086 280.967 149.058C289.854 150.038 290.72 145.724 291.871 137.932C293.798 124.909 294.443 120.012 294.436 120.088C294.436 120.088 305.874 119.706 310.116 105.378C312.224 98.2516 313.43 86.2706 314.102 76.4357C314.705 67.5801 310.317 56.0436 301.465 55.8213L273.293 59.1274Z" fill="#FFBE9D"/>
<path d="M310.234 84.1938C310.137 85.1871 309.222 85.9302 308.182 85.8469C307.143 85.7635 306.38 84.8953 306.477 83.9021C306.574 82.9089 307.489 82.1657 308.529 82.2491C309.569 82.3324 310.331 83.2006 310.241 84.2008L310.234 84.1938Z" fill="#263238"/>
<path d="M311.031 80.4085C310.817 80.6725 309.312 79.714 307.288 79.8598C305.257 79.9779 303.843 81.1239 303.607 80.8947C303.489 80.7905 303.697 80.3321 304.314 79.8112C304.917 79.2972 305.978 78.7624 307.24 78.6791C308.501 78.5957 309.596 78.9916 310.241 79.4223C310.9 79.8598 311.142 80.2905 311.031 80.4085Z" fill="#263238"/>
<path d="M292.398 85.2496C292.155 85.4927 290.755 84.3883 288.724 84.3328C286.693 84.2494 285.175 85.2565 284.96 84.9995C284.856 84.8884 285.105 84.4439 285.771 83.9924C286.422 83.541 287.525 83.1104 288.793 83.152C290.062 83.1937 291.109 83.6938 291.712 84.1869C292.322 84.687 292.523 85.1385 292.405 85.2426L292.398 85.2496Z" fill="#263238"/>
<path d="M296.19 96.0082C296.19 95.8901 297.479 95.8415 299.538 95.8485C300.058 95.8624 300.557 95.8276 300.696 95.4873C300.869 95.1331 300.723 94.5497 300.55 93.9107C300.231 92.598 299.898 91.2227 299.545 89.785C298.165 83.916 297.243 79.1167 297.479 79.0611C297.715 79.0055 299.025 83.7216 300.404 89.5905C300.73 91.0352 301.049 92.4174 301.34 93.7301C301.458 94.3413 301.708 95.0497 301.34 95.786C301.153 96.1541 300.737 96.3833 300.398 96.4249C300.058 96.4805 299.767 96.4527 299.51 96.4249C297.451 96.2652 296.183 96.1055 296.19 95.9943V96.0082Z" fill="#263238"/>
<path d="M294.436 120.088C294.436 120.088 284.523 119.429 275.56 112.282C275.56 112.282 279.172 122.992 293.972 123.554L294.436 120.088Z" fill="#EB996E"/>
<path d="M292.682 81.7699C292.363 82.263 290.443 81.5476 288.058 81.2767C285.674 80.9642 283.643 81.2073 283.449 80.6516C283.365 80.3877 283.809 79.9571 284.689 79.6098C285.563 79.2625 286.873 79.0472 288.308 79.2209C289.736 79.3945 290.963 79.9154 291.726 80.4572C292.495 80.9989 292.828 81.5268 292.682 81.7629V81.7699Z" fill="#263238"/>
<path d="M310.733 77.6789C310.401 78.1582 308.979 77.7484 307.295 77.8179C305.61 77.8179 304.203 78.2902 303.85 77.8179C303.697 77.5887 303.898 77.1164 304.494 76.6441C305.084 76.1787 306.096 75.7689 307.253 75.7411C308.411 75.7203 309.437 76.0884 310.04 76.5329C310.657 76.9774 310.879 77.4428 310.733 77.6789Z" fill="#263238"/>
<path d="M291.282 99.6963C292.204 99.0712 293.368 98.8281 294.457 99.0295C295.011 99.1337 295.573 99.3629 295.933 99.8005C296.412 100.37 296.467 101.176 296.446 101.926C296.432 102.37 296.405 102.829 296.252 103.245C296.1 103.662 295.808 104.051 295.406 104.239C294.99 104.433 294.505 104.385 294.048 104.308C293.292 104.183 292.537 103.968 291.906 103.53C291.275 103.093 290.783 102.419 290.706 101.655C290.63 100.891 291.06 100.071 291.781 99.8074" fill="#EB996E"/>
<path d="M296.751 104.155C296.599 104.211 296.335 103.766 295.85 103.155C295.365 102.544 294.623 101.773 293.625 101.203C292.627 100.634 291.587 100.384 290.817 100.28C290.048 100.169 289.528 100.169 289.5 100.009C289.466 99.8699 289.951 99.5991 290.831 99.5088C291.698 99.4185 292.966 99.5713 294.166 100.259C295.358 100.94 296.141 101.954 296.509 102.752C296.883 103.551 296.89 104.114 296.758 104.155H296.751Z" fill="#263238"/>
<path d="M261.627 118.206C266.437 117.248 270.153 113.101 271.81 108.469C273.467 103.843 273.383 98.7795 272.94 93.8829C272.884 93.2508 272.78 92.5493 272.281 92.1604C271.553 91.5978 270.507 92.0562 269.723 92.5354C266.687 94.3899 263.775 96.4388 261.003 98.6753C258.424 100.759 255.873 103.155 254.882 106.315C253.364 111.17 256.573 116.97 261.488 118.255" fill="black"/>
<path d="M261.627 118.206C266.437 117.248 270.153 113.101 271.81 108.469C273.467 103.843 273.383 98.7795 272.94 93.8829C272.884 93.2508 272.78 92.5493 272.281 92.1604C271.553 91.5978 270.507 92.0562 269.723 92.5354C266.687 94.3899 263.775 96.4388 261.003 98.6753C258.424 100.759 255.873 103.155 254.882 106.315C253.364 111.17 256.573 116.97 261.488 118.255" stroke="black" stroke-miterlimit="10"/>
<path d="M372.366 117.074L349.643 80.4849L343.37 67.6079C343.37 67.6079 341.366 64.9478 339.287 62.6766C335.869 58.9468 332.5 61.8431 332.5 61.8431C332.5 61.8431 332.008 60.4193 330.219 60.4332C328.084 60.454 327.079 62.0376 327.079 62.0376C327.079 62.0376 326.15 61.0027 323.571 60.8429C323.017 60.8082 322.462 61.0235 321.936 61.3708C321.09 60.6276 319.544 59.5511 318.047 60.0998C316.882 60.5234 309.818 65.9062 308.078 68.615C307.219 69.9555 308.813 71.6919 310.962 70.8792C311.905 70.5181 312.855 70.2333 313.541 69.8305C314.692 69.1567 315.288 68.4205 315.288 68.4205C315.288 68.4205 313.506 71.546 315.288 72.0947C316.029 72.3239 317.603 72.1572 318.629 71.2821C319.308 70.7056 320.092 69.9624 320.833 69.2401C320.806 69.2818 320.771 69.3234 320.743 69.3651C319.759 70.8237 322.324 72.9837 323.571 72.1086C324.195 71.671 324.743 71.2265 325.228 70.7959C328.112 72.8935 324.105 75.5814 322.414 75.4425C319.794 75.2272 316.73 75.241 314.594 75.4147C313.125 75.5397 311.808 75.887 311.018 76.7066C310.061 77.6928 311.066 79.7626 312.418 79.971C314.906 80.353 318.081 80.9086 321.381 81.7629C325.27 82.7631 335.432 86.0761 335.432 86.0761L336.424 86.8818L350.246 120.644L326.587 125.666L321.305 155.698L364.006 144.092C373.628 139.078 378.182 126.249 372.359 117.081L372.366 117.074Z" fill="#FFBE9D"/>
<path d="M335.432 86.0691C335.432 86.0691 335.245 86.0344 334.892 85.9372C334.51 85.8261 333.997 85.6802 333.36 85.4996C331.994 85.0968 330.088 84.5272 327.745 83.8257C326.559 83.4646 325.263 83.0756 323.87 82.6519C322.476 82.2213 320.993 81.7768 319.405 81.374C317.825 80.9711 316.154 80.5683 314.4 80.3391C313.548 80.2071 312.584 80.2905 311.683 79.8459C311.461 79.7348 311.246 79.5959 311.073 79.3875C310.99 79.2834 310.914 79.1722 310.865 79.0125L310.81 78.6444C310.754 78.1651 310.747 77.665 310.9 77.1719C311.059 76.6718 311.447 76.262 311.884 76.0328C312.314 75.7897 312.771 75.6508 313.208 75.505C314.116 75.2133 315.052 75.1647 315.946 75.1647C317.749 75.1855 319.447 75.4355 321.069 75.373C321.88 75.3452 322.67 75.2758 323.419 75.1438C324.175 75.0049 324.896 74.8104 325.603 74.6298C327.003 74.2548 328.382 73.9839 329.644 74.1159C330.899 74.2201 331.987 74.5743 332.902 74.9493C333.817 75.3244 334.566 75.7272 335.176 76.0676C335.779 76.4079 336.236 76.6927 336.548 76.8802C336.853 77.0747 337.013 77.1858 337.006 77.1927C336.999 77.1997 336.826 77.1163 336.507 76.9427C336.153 76.7552 335.689 76.5051 335.107 76.1856C334.49 75.8662 333.741 75.4841 332.826 75.1299C331.918 74.7757 330.843 74.4493 329.623 74.3659C328.403 74.2548 327.079 74.5326 325.679 74.9146C324.979 75.1021 324.251 75.3105 323.475 75.4564C322.698 75.6022 321.901 75.6786 321.076 75.7064C319.419 75.7828 317.7 75.5397 315.939 75.5189C315.059 75.5189 314.158 75.5744 313.312 75.8453C312.466 76.1231 311.496 76.4218 311.239 77.283C311.108 77.6928 311.115 78.1512 311.163 78.6027L311.205 78.9222C311.226 78.9916 311.281 79.0819 311.336 79.1514C311.468 79.3042 311.641 79.4223 311.829 79.5126C312.605 79.9015 313.534 79.839 314.428 79.971C316.21 80.2071 317.88 80.6238 319.468 81.0336C321.055 81.4504 322.546 81.9018 323.932 82.3463C325.318 82.7839 326.608 83.1867 327.793 83.5618C330.122 84.305 332.022 84.9162 333.38 85.3468C334.011 85.5552 334.517 85.7219 334.892 85.8469C335.238 85.965 335.418 86.0344 335.412 86.0483L335.432 86.0691Z" fill="#EB996E"/>
<path d="M317.922 60.1553C317.957 60.2109 316.854 60.8568 315.218 62.0931C314.4 62.7113 313.465 63.4961 312.501 64.4546C311.53 65.3992 310.511 66.5105 309.305 67.5454C308.716 68.0455 308.161 68.5872 308.023 69.2609C307.954 69.5874 307.981 69.9277 308.141 70.1916C308.293 70.4625 308.564 70.6431 308.855 70.7473C309.458 70.9487 310.102 70.8931 310.685 70.782C311.267 70.6709 311.801 70.5111 312.272 70.3236C314.165 69.5526 315.038 68.5455 315.087 68.615C315.1 68.6289 314.899 68.8789 314.463 69.2609C314.026 69.6429 313.333 70.143 312.369 70.5597C311.891 70.7681 311.343 70.9487 310.74 71.0737C310.144 71.1987 309.451 71.2821 308.744 71.0598C308.397 70.9487 308.044 70.7195 307.836 70.3653C307.621 70.018 307.586 69.5804 307.662 69.1845C307.822 68.365 308.466 67.7676 309.056 67.2676C310.241 66.2466 311.26 65.1561 312.251 64.2115C313.243 63.26 314.206 62.489 315.052 61.8848C315.891 61.2805 316.612 60.8499 317.111 60.5582C317.617 60.2734 317.901 60.1275 317.908 60.1484L317.922 60.1553Z" fill="#EB996E"/>
<path d="M326.587 63.0308C326.587 63.0308 326.317 63.385 325.783 63.9893C325.208 64.6283 324.438 65.4756 323.502 66.5035C322.518 67.5732 321.36 68.8164 320.085 70.1986C319.426 70.907 318.643 71.5668 317.686 72.0322C317.208 72.2614 316.674 72.435 316.099 72.4281C315.53 72.4142 314.934 72.2475 314.504 71.7891C314.276 71.553 314.165 71.2335 314.123 70.9209C314.095 70.6084 314.144 70.3097 314.213 70.0249C314.373 69.4623 314.636 68.9692 314.948 68.5039L314.962 68.483C316.182 67.1842 317.319 65.9618 318.345 64.8366C319.385 63.7323 320.383 62.8294 321.194 62.0584C321.596 61.6764 321.97 61.3152 322.379 61.0999C322.802 60.8846 323.197 60.8916 323.502 60.8568C324.112 60.8152 324.473 60.8707 324.445 60.9332C324.459 60.9054 324.119 60.8985 323.516 60.9749C323.225 61.0305 322.823 61.0444 322.469 61.2527C322.102 61.4611 321.755 61.8223 321.353 62.2182C320.563 63.0099 319.586 63.9268 318.567 65.038C317.568 66.1632 316.432 67.4065 315.212 68.7261L315.225 68.7053C314.941 69.122 314.692 69.6082 314.553 70.1083C314.484 70.3583 314.456 70.6223 314.47 70.8723C314.504 71.1154 314.588 71.3515 314.754 71.5321C315.073 71.8794 315.607 72.0461 316.085 72.053C316.584 72.053 317.069 71.9072 317.52 71.6919C318.414 71.2612 319.191 70.6223 319.828 69.9485C321.125 68.5872 322.303 67.3579 323.301 66.3021C324.272 65.3089 325.069 64.4824 325.665 63.8642C325.922 63.6073 326.143 63.3919 326.324 63.2114C326.476 63.0655 326.559 62.9961 326.573 63.003L326.587 63.0308Z" fill="#EB996E"/>
<path d="M337.207 66.3786C337.241 66.4063 337.172 66.5869 336.93 66.7814C336.694 66.9689 336.264 67.1495 335.779 67.0662C335.294 66.9828 334.947 66.6703 334.794 66.4063C334.635 66.1424 334.628 65.9479 334.677 65.934C334.725 65.9132 334.815 66.066 334.995 66.2466C335.176 66.4272 335.474 66.6425 335.841 66.705C336.209 66.7675 336.562 66.6703 336.791 66.5591C337.027 66.448 337.158 66.3369 337.2 66.3716L337.207 66.3786Z" fill="#EB996E"/>
<path d="M338.039 69.5665C337.963 69.6291 337.443 69.1081 336.985 68.3302C336.528 67.5523 336.32 66.8439 336.41 66.8092C336.507 66.7675 336.853 67.3926 337.297 68.1496C337.741 68.9067 338.122 69.511 338.039 69.5735V69.5665Z" fill="#EB996E"/>
<path d="M339.571 81.9852C339.536 82.006 339.224 81.4712 338.912 80.5405C338.6 79.6098 338.323 78.2554 338.344 76.7413C338.364 75.2272 338.676 73.8867 339.016 72.9629C339.349 72.0392 339.675 71.5182 339.709 71.5321C339.827 71.5669 338.725 73.7825 338.704 76.7482C338.642 79.714 339.688 81.9574 339.571 81.9852Z" fill="#EB996E"/>
<path d="M358.232 130.111C358.163 130.118 358.093 129.375 357.733 128.242C357.559 127.673 357.282 127.027 356.915 126.332C356.533 125.652 356.055 124.936 355.466 124.256C354.87 123.582 354.218 123.012 353.594 122.547C352.957 122.096 352.353 121.734 351.813 121.484C350.738 120.977 350.01 120.818 350.031 120.748C350.031 120.72 350.218 120.748 350.551 120.818C350.884 120.88 351.355 121.026 351.917 121.248C352.478 121.471 353.123 121.818 353.788 122.269C354.447 122.735 355.119 123.318 355.736 124.013C356.346 124.714 356.832 125.464 357.206 126.173C357.566 126.895 357.83 127.576 357.975 128.166C358.128 128.756 358.211 129.243 358.225 129.576C358.246 129.916 358.253 130.104 358.225 130.104L358.232 130.111Z" fill="#EB996E"/>
<path d="M278.943 197.003C275.913 196.371 273.175 197.74 273.175 197.74C270.09 196.371 266.285 198.733 266.285 198.733C265.169 198.198 258.445 202.601 258.445 202.601L250.071 206.56L205.338 173.256L218.017 160.039L200.25 141.515L179.426 162.984C176.833 165.665 175.523 169.284 175.274 173.09C174.747 181.251 179.391 188.87 186.67 192.565L239.381 219.653C239.381 219.653 244.969 219.458 251.367 217.784C255.914 216.597 263.685 213.138 263.685 213.138C263.685 213.138 263.664 213.374 265.051 216.069C267.553 220.924 271.22 215.687 271.22 215.687C271.22 215.687 271.969 217.409 272.641 218.062C275.809 221.139 278.007 217.006 278.007 217.006C278.007 217.006 278.957 218.666 281.792 217.43C284.613 216.201 281.383 207.665 281.383 207.665C281.383 207.665 282.333 209.519 284.17 207.172C286.007 204.824 281.986 197.635 278.95 197.003H278.943Z" fill="#FFBE9D"/>
<path d="M272.614 198.17C272.614 198.17 272.801 198.045 273.196 197.948C273.584 197.844 274.194 197.816 274.894 197.997C275.595 198.177 276.378 198.566 277.133 199.143C277.515 199.434 277.889 199.747 278.25 200.143C278.603 200.539 278.88 201.011 279.123 201.497C280.087 203.442 280.759 205.289 281.168 206.644C281.376 207.324 281.515 207.88 281.605 208.262C281.688 208.651 281.723 208.866 281.702 208.873C281.646 208.887 281.397 208.047 280.932 206.72C280.461 205.394 279.754 203.581 278.804 201.657C278.568 201.185 278.305 200.74 277.986 200.372C277.66 200.011 277.293 199.684 276.932 199.406C276.212 198.837 275.477 198.448 274.825 198.24C273.487 197.823 272.628 198.26 272.614 198.163V198.17Z" fill="#EB996E"/>
<path d="M278 217.006C278 217.006 277.841 216.743 277.612 216.235C277.348 215.666 277.023 214.951 276.634 214.11C275.81 212.311 274.603 209.859 273.453 207.053C272.891 205.65 272.378 204.31 271.629 203.261C270.902 202.199 269.938 201.511 269.058 201.108C268.177 200.698 267.366 200.643 266.839 200.712C266.306 200.782 266.028 200.928 266.008 200.893C266.008 200.879 266.07 200.844 266.202 200.775C266.333 200.705 266.541 200.629 266.819 200.573C267.366 200.455 268.226 200.483 269.162 200.872C270.091 201.254 271.13 201.962 271.907 203.06C272.697 204.143 273.231 205.519 273.792 206.915C274.936 209.7 276.108 212.172 276.877 214.006C277.265 214.916 277.563 215.666 277.751 216.187C277.945 216.708 278.035 217 278.007 217.013L278 217.006Z" fill="#EB996E"/>
<path d="M257.467 206.29C257.467 206.29 257.71 206.123 258.181 205.894C258.722 205.63 259.387 205.31 260.178 204.928C260.608 204.727 261.058 204.504 261.578 204.282C262.112 204.067 262.729 203.963 263.373 204.018C264.018 204.081 264.684 204.31 265.252 204.741C265.82 205.178 266.243 205.769 266.631 206.387C267.013 207.005 267.311 207.651 267.602 208.255C267.9 208.859 268.205 209.429 268.503 209.971C269.106 211.047 269.675 212.02 270.098 212.86C270.52 213.7 270.812 214.409 270.985 214.909C271.158 215.409 271.227 215.687 271.207 215.701C271.144 215.722 270.77 214.617 269.869 212.985C269.425 212.165 268.836 211.214 268.212 210.137C267.9 209.596 267.588 209.026 267.283 208.415C266.978 207.804 266.687 207.179 266.32 206.581C265.952 205.984 265.536 205.421 265.037 205.032C264.531 204.643 263.921 204.428 263.339 204.359C262.75 204.296 262.174 204.379 261.682 204.567C261.183 204.768 260.711 204.984 260.282 205.164C259.471 205.505 258.791 205.789 258.237 206.026C257.752 206.22 257.474 206.317 257.467 206.296V206.29Z" fill="#EB996E"/>
<path d="M258.438 202.601C258.438 202.601 258.23 202.761 257.828 202.99C257.426 203.22 256.836 203.539 256.102 203.928C254.639 204.706 252.601 205.755 250.341 206.894C248.081 208.033 246.029 209.047 244.532 209.769C243.783 210.13 243.173 210.415 242.75 210.603C242.328 210.79 242.085 210.887 242.078 210.86C242.064 210.839 242.286 210.7 242.688 210.471C243.09 210.241 243.679 209.922 244.414 209.533C245.877 208.755 247.915 207.706 250.175 206.567C252.435 205.428 254.486 204.414 255.984 203.692C256.732 203.331 257.336 203.046 257.765 202.858C258.188 202.671 258.431 202.574 258.438 202.594V202.601Z" fill="#EB996E"/>
<path d="M205.927 173.333C205.906 173.451 203.563 172.798 200.645 173.159C197.727 173.486 195.592 174.673 195.55 174.562C195.529 174.528 196.028 174.18 196.922 173.784C197.817 173.388 199.113 172.972 200.603 172.798C202.087 172.624 203.453 172.722 204.409 172.895C205.373 173.069 205.934 173.284 205.927 173.326V173.333Z" fill="#EB996E"/>
<path d="M304.723 53.0223C293.653 52.8695 282.568 54.0433 271.775 56.5089C269.273 57.0785 266.625 57.8147 264.933 59.7525C263.145 61.7945 262.826 64.7116 262.59 67.4204C262.306 70.7195 262.022 74.0186 261.731 77.3178C261.252 78.1443 260.718 78.9361 260.15 79.6793C257.544 83.0895 254.223 85.9303 251.852 89.5141C249.482 93.0911 248.171 97.8488 250.105 101.683C251.27 104.003 253.44 105.635 255.02 107.698C257.703 111.191 258.576 115.692 260.143 119.811C261.71 123.929 264.538 128.124 268.857 128.951C270.916 129.347 273.058 128.909 275.13 129.215C278.229 129.666 280.835 131.701 283.303 133.639C285.771 135.577 288.44 137.556 291.552 137.862C294.672 138.175 298.242 136.056 298.304 132.917C296.017 134.25 292.98 134.16 290.769 132.702C288.953 131.507 287.781 129.562 286.222 128.041C282.395 124.318 276.219 123.138 273.557 118.505C271.449 114.838 272.288 110.254 273.245 106.135C274.077 102.565 274.915 98.6892 273.889 95.2581C273.966 94.7094 274.014 94.1468 274.014 93.5912C274.042 89.9378 272.593 86.0205 274.291 82.7909C276.537 78.5124 283.012 77.9776 285.279 73.713C286.596 71.2335 286.131 68.0663 287.573 65.6632C288.932 63.3989 291.636 62.3571 294.214 61.7945C296.786 61.2319 299.503 60.9749 301.784 59.6414C304.058 58.3148 305.749 55.4532 304.723 53.0223Z" fill="black"/>
<path d="M304.723 53.0223C292.495 53.0431 280.087 54.1891 268.344 57.6897C262.93 59.565 262.971 65.1353 262.576 69.9694L261.952 77.3247C258.043 84.2286 249.537 88.8543 249.447 97.5293C249.267 102.009 252.74 104.426 255.298 107.579C259.041 112.497 259.221 119.123 262.736 124.138C268.198 131.854 272.51 126.659 278.894 130.146C282.554 132.097 285.258 135.327 288.946 136.834C292.273 138.508 297.715 137.07 297.992 132.896L298.457 133.174C296.398 134.348 293.819 134.459 291.663 133.514C289.493 132.59 288.149 130.562 286.637 128.888C285.154 127.235 283.241 126.048 281.286 124.95C273.633 121.047 270.708 117.4 272.461 108.559C273.3 104.197 274.922 99.6824 273.647 95.272C274.388 90.5838 271.38 84.7217 275.456 80.9225C277.279 79.1514 279.636 78.2207 281.695 76.9219C289.098 72.8518 283.255 65.5798 291.559 62.4682C294.998 61.1277 298.977 61.4125 302.138 59.3566C304.113 58.0161 305.68 55.4046 304.702 53.0153L304.723 53.0223ZM304.723 53.0223C305.721 55.4115 304.169 58.0578 302.2 59.4191C299.046 61.5167 295.074 61.2666 291.649 62.6418C284.842 65.2603 287.975 70.3167 284.752 74.8035C282.402 77.7553 278.347 78.6235 275.74 81.1934C271.803 84.8537 274.874 90.9727 274.09 95.1956C275.394 99.6894 273.778 104.266 272.947 108.649C271.262 117.282 274.097 120.686 281.57 124.471C283.539 125.562 285.521 126.784 287.074 128.499C288.565 130.132 289.84 132.076 291.913 132.958C293.895 133.82 296.287 133.709 298.152 132.625L298.637 132.347C298.81 137.355 292.634 139.376 288.696 137.445C284.807 135.848 282.069 132.618 278.575 130.743C276.829 129.764 274.915 129.333 272.905 129.409C270.881 129.465 268.697 129.534 266.819 128.597C262.999 126.756 260.878 122.79 259.526 118.97C258.181 115.192 257.287 111.149 254.847 107.913C253.655 106.322 252.088 105.003 250.854 103.343C249.572 101.711 248.899 99.5991 248.934 97.5224C248.962 88.9307 257.731 83.6313 261.523 77.283L262.174 69.9277C262.583 66.3577 262.375 62.1418 265.058 59.3427C267.81 56.6826 271.844 56.3909 275.394 55.5713C285.05 53.6821 294.9 52.8278 304.723 53.0084V53.0223Z" fill="black"/>
<path d="M313.118 127.541C313.118 127.541 313.09 127.604 313.014 127.715C312.924 127.84 312.813 127.999 312.674 128.201C312.362 128.618 311.842 129.187 311.08 129.819C310.303 130.43 309.25 131.062 307.919 131.521C306.595 131.979 304.973 132.257 303.198 132.069C301.43 131.924 299.517 131.201 297.888 129.889C296.238 128.618 294.769 126.93 292.904 125.589C291.968 124.929 290.901 124.402 289.729 124.256C288.551 124.089 287.351 124.429 286.194 124.895C285.029 125.353 283.858 125.944 282.52 126.166C281.182 126.402 279.781 126.075 278.575 125.464C277.348 124.86 276.274 124.047 275.241 123.249C274.208 122.443 273.196 121.63 272.316 120.7C271.428 119.783 270.666 118.734 270.236 117.56C269.779 116.386 269.758 115.108 270 113.949C270.229 112.782 270.652 111.719 271.047 110.691C271.449 109.663 271.796 108.663 272.101 107.677C272.697 105.704 273.113 103.822 273.383 102.093C273.924 98.6267 273.924 95.7651 273.834 93.8065C273.792 92.8272 273.73 92.0632 273.674 91.5492C273.654 91.3061 273.633 91.1116 273.626 90.9658C273.619 90.8338 273.612 90.7643 273.626 90.7643C273.64 90.7643 273.647 90.8269 273.667 90.9588C273.688 91.1116 273.716 91.2992 273.758 91.5423C273.834 92.0562 273.917 92.8133 273.986 93.7996C274.118 95.7651 274.16 98.6336 273.654 102.134C273.397 103.878 272.995 105.774 272.406 107.767C272.101 108.76 271.761 109.781 271.359 110.809C270.971 111.837 270.562 112.893 270.34 114.018C270.118 115.136 270.139 116.331 270.576 117.442C270.985 118.56 271.719 119.561 272.586 120.457C273.453 121.359 274.451 122.165 275.477 122.964C276.503 123.763 277.563 124.554 278.749 125.138C279.92 125.728 281.23 126.027 282.485 125.812C283.74 125.61 284.904 125.034 286.083 124.568C287.254 124.096 288.53 123.735 289.784 123.915C291.032 124.075 292.155 124.645 293.112 125.325C295.018 126.714 296.474 128.402 298.089 129.666C299.677 130.965 301.514 131.667 303.24 131.826C304.966 132.028 306.56 131.771 307.87 131.34C309.187 130.91 310.234 130.305 311.011 129.722C312.556 128.513 313.083 127.52 313.139 127.562L313.118 127.541Z" fill="black"/>
<path d="M313.118 127.541C310.518 131.722 304.647 133.327 300.162 131.41C297.126 130.132 295.157 127.284 292.467 125.527C285.41 121.29 284.239 131.41 274.499 123.026C269.487 119.172 268.323 115.97 270.915 110.087C273.231 104.072 273.979 97.5224 273.279 91.1186C273.272 91.0144 273.258 90.9241 273.258 90.7921C273.529 90.7227 272.655 90.8755 273.875 90.5282C274.007 90.7574 273.931 90.6602 273.959 90.7088C274.444 93.8204 274.506 97.0014 274.201 100.127C273.875 103.377 273.203 106.6 272.059 109.663C271.338 111.941 270.104 114.122 270.604 116.532C271.137 118.88 272.988 120.575 274.804 122.061C276.059 123.061 277.314 124.089 278.721 124.818C283.899 127.735 287.143 121.151 292.592 124.742C295.358 126.471 297.209 129.347 300.134 130.805C304.501 132.959 310.234 131.451 313.111 127.541H313.118ZM313.118 127.541C310.276 131.549 304.501 133.146 300.03 131.035C297.056 129.639 295.136 126.77 292.398 125.075C287.116 121.672 283.872 128.312 278.485 125.291C277.002 124.541 275.726 123.506 274.451 122.512C271.9 120.568 269.252 117.609 269.993 114.122C270.271 112.462 271.006 110.976 271.47 109.448C272.586 106.433 273.238 103.252 273.55 100.057C273.841 97.0014 273.765 93.8898 273.293 90.8546C273.314 90.8824 273.238 90.7574 273.356 90.9658C274.562 90.6324 273.695 90.8269 273.959 90.7713L273.979 91.0491C274.666 97.5224 273.882 104.211 271.512 110.295C268.995 115.984 270.07 118.803 274.867 122.561C284.211 130.847 285.369 120.72 292.682 125.186C295.386 126.985 297.271 129.833 300.266 131.167C304.661 133.125 310.456 131.639 313.118 127.534V127.541Z" fill="black"/>
<path d="M243.86 105.454C243.86 105.454 243.645 105.211 243.305 104.69C242.979 104.162 242.57 103.322 242.328 102.162C242.078 101.002 242.043 99.5227 242.397 97.8696C242.764 96.2305 243.492 94.4038 244.795 92.716C246.071 91.0213 247.804 89.4447 249.8 87.9722C251.79 86.4859 254.05 85.1107 256.303 83.4993C258.535 81.881 260.822 80.0057 262.472 77.4914C263.304 76.2482 263.893 74.8313 264.344 73.3449C264.795 71.8586 265.1 70.3028 265.453 68.7331C265.807 67.1634 266.209 65.6076 266.853 64.1629C267.477 62.7113 268.406 61.3917 269.578 60.3915C270.749 59.3913 272.115 58.6829 273.508 58.2245C274.902 57.7522 276.33 57.5091 277.723 57.391C280.516 57.1479 283.165 57.4605 285.625 57.6411C288.086 57.8425 290.381 57.9536 292.46 57.7314C294.54 57.5299 296.356 56.9048 297.819 56.1339C299.275 55.3421 300.377 54.3975 301.105 53.4807C301.833 52.5708 302.228 51.7374 302.429 51.1539C302.623 50.5705 302.699 50.251 302.72 50.258C302.72 50.258 302.678 50.5844 302.498 51.1817C302.311 51.7721 301.937 52.6333 301.209 53.571C300.495 54.5156 299.379 55.4949 297.909 56.3145C296.433 57.1132 294.596 57.7661 292.481 57.9883C290.381 58.2314 288.059 58.1342 285.598 57.9467C283.137 57.773 280.503 57.4813 277.751 57.7314C276.378 57.8564 274.978 58.0995 273.619 58.5648C272.253 59.0163 270.936 59.7039 269.806 60.6763C268.677 61.6417 267.789 62.9127 267.179 64.3296C266.555 65.7396 266.153 67.2745 265.8 68.8373C265.439 70.4 265.134 71.9628 264.684 73.47C264.233 74.9771 263.616 76.4357 262.763 77.7067C261.072 80.2766 258.743 82.1658 256.49 83.791C254.216 85.4024 251.956 86.7707 249.974 88.2362C247.984 89.6808 246.265 91.2297 244.997 92.8897C243.707 94.5358 242.972 96.3208 242.591 97.9321C242.231 99.5505 242.238 101.009 242.466 102.155C242.924 104.468 243.95 105.447 243.867 105.475L243.86 105.454Z" fill="black"/>
<path d="M243.86 105.454C240.005 100.544 242.972 93.5148 247.242 89.8823C251.506 85.9441 257.093 83.5549 260.933 79.1722C266.479 73.4769 263.567 62.9613 271.262 58.9121C279.976 54.0085 291.171 61.0444 299.33 54.7378C300.814 53.5987 301.909 51.9943 302.359 50.1746L302.373 50.1329C302.519 50.0843 302.075 50.1538 302.782 49.9107L303.177 49.7718C302.817 51.9596 301.68 53.9669 299.919 55.3351C291.795 62.0029 280.593 55.0365 271.81 59.5997C266.174 62.3849 266.382 69.3443 264.531 74.5604C263.886 76.4079 262.847 78.1235 261.557 79.589C257.661 84.0341 252.143 86.3539 247.742 90.1462C243.36 93.6398 240.359 100.37 243.853 105.454H243.86ZM243.86 105.454C240.276 100.377 243.215 93.5426 247.582 89.9587C251.887 86.1039 257.453 83.7216 261.259 79.325C266.805 73.6505 263.866 63.1141 271.567 59.1413C280.274 54.4253 291.448 61.35 299.503 54.8212C300.938 53.6474 302.068 52.0013 302.366 50.2093L302.63 50.5913C303.323 50.3482 302.872 50.4385 303.011 50.4038C302.027 54.3766 298.172 56.8979 294.367 57.7383C288.585 58.9815 282.742 57.0368 276.946 57.7383C273.196 58.1342 269.349 59.8358 267.533 63.3017C264.864 68.4344 265.495 75.0605 261.224 79.4292C257.301 83.8674 251.762 86.1872 247.402 90.0628C243.111 93.6051 240.089 100.523 243.853 105.447L243.86 105.454Z" fill="black"/>
<path d="M245.891 109.101C245.891 109.101 245.031 108.475 243.762 107.052C243.139 106.336 242.404 105.399 241.912 104.107C241.676 103.468 241.516 102.725 241.593 101.933C241.662 101.148 241.988 100.342 242.529 99.6546C243.652 98.2794 245.509 97.5362 247.457 97.1265C248.442 96.9181 249.461 96.7583 250.48 96.5083C251.499 96.2583 252.538 95.904 253.433 95.2789C254.32 94.64 255.048 93.7509 255.582 92.7299C256.129 91.7089 256.511 90.5699 256.913 89.4169C257.315 88.264 257.717 87.0693 258.327 85.9372C258.916 84.7981 259.796 83.7563 260.926 83.0548C262.056 82.3533 263.311 81.9643 264.538 81.6449C265.765 81.3254 266.978 81.0684 268.122 80.6794C270.437 79.9501 272.253 78.3596 273.626 76.6163C275.019 74.8729 276.038 72.9907 277.043 71.2613C278.042 69.5318 279.033 67.9344 280.156 66.6355C281.258 65.3228 282.506 64.3505 283.712 63.7254C284.925 63.0933 286.083 62.8085 287.032 62.7183C287.989 62.6419 288.738 62.7599 289.216 62.8988C289.701 63.0308 289.937 63.1489 289.937 63.1489C289.937 63.1697 289.681 63.0725 289.202 62.9683C288.724 62.8572 287.982 62.7669 287.046 62.8572C286.111 62.9613 284.988 63.2669 283.809 63.899C282.631 64.531 281.424 65.4965 280.35 66.7953C279.262 68.0802 278.284 69.6707 277.3 71.4071C276.309 73.1366 275.296 75.0396 273.882 76.8177C273.182 77.7067 272.378 78.561 271.435 79.2973C270.499 80.0404 269.404 80.6239 268.226 81.0128C267.054 81.4156 265.834 81.6726 264.621 81.9921C263.408 82.3116 262.188 82.6936 261.113 83.3604C260.039 84.0272 259.207 85.0065 258.632 86.1108C258.043 87.2082 257.64 88.382 257.238 89.535C256.836 90.6879 256.448 91.8409 255.88 92.8966C255.325 93.9523 254.563 94.89 253.613 95.5637C252.663 96.2235 251.582 96.5778 250.542 96.8278C249.502 97.0778 248.476 97.2306 247.506 97.4321C245.586 97.821 243.783 98.5364 242.716 99.8283C242.196 100.467 241.884 101.224 241.808 101.968C241.724 102.711 241.863 103.426 242.085 104.044C242.542 105.294 243.256 106.239 243.853 106.961C244.463 107.684 244.983 108.205 245.336 108.559C245.502 108.719 245.634 108.851 245.745 108.955C245.835 109.045 245.884 109.094 245.877 109.101H245.891Z" fill="black"/>
<path d="M245.891 109.101C241.967 106.128 238.979 100.599 244.872 97.8766C247.686 96.5361 251.201 96.9528 253.689 94.9456C257.342 91.8062 256.49 85.6455 260.753 82.9576C263.505 81.2073 266.867 81.2698 269.591 79.8251C275.29 76.6996 276.482 69.5318 281.085 65.2186C283.553 62.8919 287.268 61.4819 290.554 63.01L290.263 63.2669C289.743 63.7253 289.979 63.3989 289.875 63.4961C289.854 63.4961 289.798 63.4823 289.778 63.4753C286.866 62.5168 283.74 63.8504 281.605 65.8854C277.175 70.1639 275.789 77.3456 270.084 80.4363C267.255 81.9643 263.928 81.881 261.273 83.4507C257.058 86.0136 257.835 92.1257 254.195 95.2234C251.714 97.3487 248.234 96.9528 245.357 98.0988C239.173 100.683 242.251 105.718 245.884 109.08L245.891 109.101ZM245.891 109.101C242.175 105.711 239.083 100.696 245.322 98.0016C248.164 96.8347 251.651 97.189 254.064 95.0845C257.647 91.9242 256.816 85.7913 261.107 83.1798C263.879 81.5268 267.207 81.5823 269.89 80.0752C275.539 76.8802 276.711 69.8444 281.196 65.4617C283.435 63.2531 286.901 61.8223 289.972 62.8224C289.875 62.9197 290.124 62.6002 289.618 63.0516L289.792 63.4753C286.984 62.3015 283.65 63.6906 281.508 65.677C276.953 69.893 275.581 77.1719 269.806 80.2141C266.93 81.6865 263.588 81.5893 260.954 83.2562C256.753 85.8955 257.557 92.0423 253.842 95.1192C251.277 97.1473 247.783 96.6819 244.934 98.0016C239.083 100.62 242.057 106.149 245.898 109.101H245.891Z" fill="black"/>
<path d="M331.225 64.2324C331.225 64.2324 331.114 64.4407 330.864 64.7672C330.615 65.1006 330.24 65.5659 329.769 66.1354C328.826 67.2745 327.467 68.8025 325.873 70.4069C325.083 71.1779 324.341 72.06 323.322 72.3795C322.83 72.5323 322.303 72.5392 321.859 72.3656C321.409 72.1919 321.104 71.8447 320.917 71.5043C320.542 70.8028 320.605 70.143 320.653 69.7402C320.716 69.3234 320.799 69.1081 320.82 69.1151C320.847 69.1151 320.82 69.3512 320.792 69.7541C320.785 70.15 320.771 70.7751 321.132 71.3793C321.312 71.678 321.582 71.9558 321.956 72.0878C322.324 72.2197 322.781 72.2128 323.211 72.0669C324.092 71.7822 324.812 70.9418 325.61 70.1569C327.197 68.5594 328.577 67.0661 329.568 65.9757C330.559 64.8852 331.169 64.2046 331.211 64.2393L331.225 64.2324Z" fill="#EB996E"/>
<path d="M336.521 64.2393C336.521 64.2393 336.389 64.4477 336.105 64.7811C335.821 65.1145 335.398 65.5868 334.871 66.1632C334.316 66.7606 333.693 67.4412 333.006 68.1844C332.653 68.5664 332.278 68.9623 331.897 69.3721C331.509 69.7819 331.1 70.2125 330.594 70.5737C330.095 70.9348 329.512 71.2057 328.902 71.2474C328.299 71.3029 327.662 71.0459 327.329 70.5598C327.162 70.3236 327.065 70.0388 327.072 69.7541C327.072 69.4693 327.19 69.2193 327.308 69.0109C327.565 68.5942 327.828 68.2747 328.057 67.9552C328.521 67.3231 328.902 66.8161 329.166 66.4688C329.436 66.1216 329.596 65.941 329.616 65.9549C329.637 65.9688 329.519 66.1841 329.284 66.5522C329.048 66.9203 328.701 67.4551 328.265 68.101C328.057 68.4275 327.786 68.7817 327.571 69.1568C327.35 69.5318 327.315 69.9902 327.599 70.3653C327.87 70.7403 328.362 70.9418 328.882 70.8931C329.402 70.8584 329.921 70.6153 330.386 70.2819C330.85 69.9486 331.252 69.5318 331.641 69.129C332.029 68.7261 332.403 68.3372 332.764 67.9621C333.471 67.2398 334.115 66.58 334.684 65.9965C335.231 65.4409 335.682 64.9964 336.001 64.6908C336.32 64.3852 336.5 64.2324 336.521 64.2463V64.2393Z" fill="#EB996E"/>
<path d="M322.573 51.5567L328.147 41.4926C325.603 37.4364 324.105 32.651 324.057 27.5113C323.918 12.7311 335.758 0.632019 350.516 0.486162C365.268 0.347252 377.344 12.2102 377.489 26.9973C377.628 41.7774 365.788 53.8765 351.029 54.0224C344.867 54.0849 339.183 52.0429 334.628 48.5771V48.591L322.58 51.5567H322.573Z" stroke="black" stroke-miterlimit="10"/>
<path d="M322.573 51.5567C323.197 51.397 326.968 50.4385 334.607 48.5007L334.559 48.6466V48.6327L334.129 48.0909L334.677 48.5007C336.209 49.6537 338.039 50.7788 340.181 51.7095C342.323 52.6264 344.777 53.3626 347.473 53.689C348.818 53.8418 350.225 53.9321 351.667 53.8488C352.388 53.8001 353.123 53.7724 353.858 53.7029C354.593 53.5848 355.334 53.4598 356.09 53.3348C359.078 52.7028 362.121 51.529 364.956 49.7231C367.784 47.9242 370.398 45.4933 372.484 42.5206C374.564 39.5548 376.124 36.0473 376.838 32.2551C377.538 28.4628 377.434 24.4066 376.401 20.4963C375.361 16.5998 373.462 12.7937 370.64 9.68207L369.552 8.50133C369.192 8.10543 368.769 7.77899 368.381 7.41783C367.978 7.07749 367.611 6.68854 367.174 6.38294L365.899 5.44529C365.483 5.11885 365.032 4.85492 364.582 4.59099L363.237 3.79225C362.766 3.57 362.294 3.34774 361.83 3.12548C361.358 2.91017 360.901 2.66013 360.409 2.50733C356.561 1.02098 352.471 0.472285 348.562 0.79178C344.652 1.10433 340.923 2.26423 337.727 4.09786C334.517 5.91759 331.821 8.34158 329.741 11.0365C327.655 13.7313 326.192 16.704 325.291 19.6628C324.396 22.6286 324.168 25.5735 324.195 28.2961C324.383 33.7831 326.233 38.2838 328.216 41.4579L328.244 41.4996L328.216 41.5413C324.618 47.9242 322.871 51.0219 322.566 51.5637C322.858 51.0219 324.563 47.8964 328.064 41.4579V41.5482C326.053 38.3672 324.154 33.8387 323.946 28.3031C323.911 25.5526 324.126 22.5799 325.02 19.5795C325.922 16.5929 327.391 13.5855 329.492 10.8489C331.585 8.11238 334.316 5.6606 337.56 3.81309C340.791 1.94474 344.576 0.770944 348.527 0.451449C352.485 0.125008 356.631 0.673706 360.533 2.18089C361.033 2.33369 361.497 2.59068 361.975 2.80599C362.447 3.02824 362.925 3.25745 363.403 3.48665L364.769 4.29928C365.226 4.57015 365.684 4.83408 366.107 5.16747L367.396 6.11901C367.84 6.42461 368.207 6.82051 368.616 7.16779C369.011 7.5359 369.441 7.86234 369.802 8.26518L370.904 9.45982C373.767 12.62 375.694 16.4679 376.741 20.4268C377.78 24.3927 377.884 28.5045 377.17 32.3454C376.449 36.1932 374.862 39.7424 372.748 42.7359C370.633 45.7433 367.985 48.1951 365.115 50.0079C362.246 51.8276 359.161 53.0084 356.138 53.6404C355.376 53.7654 354.627 53.8835 353.886 54.0016C353.137 54.071 352.395 54.0988 351.667 54.1474C350.212 54.2308 348.79 54.1335 347.432 53.9738C344.707 53.6404 342.24 52.8833 340.084 51.9457C337.928 50.9942 336.091 49.8481 334.559 48.6743L334.684 48.5493V48.5632L334.781 48.6743L334.649 48.7091C326.982 50.5357 323.19 51.4387 322.566 51.5915L322.573 51.5567Z" stroke="black" stroke-miterlimit="10"/>
<path d="M343.356 22.6702L346.829 22.6355C346.829 22.6355 346.801 19.7114 349.83 19.6281C351.404 19.5864 352.229 20.6144 352.568 21.3992C352.963 22.316 352.853 23.3648 352.347 24.2191C351.764 25.1984 350.482 26.0944 348.139 25.7054L348.215 33.5609L351.653 33.5261L351.612 28.9282C351.612 28.9282 356.423 27.6363 356.367 22.3091C356.319 17.218 351.75 16.0789 349.796 16.0998C348.305 16.1137 343.224 16.5234 343.349 22.6702H343.356Z" fill="#E4101A"/>
<path d="M351.712 35.1469L348.225 35.1804L348.256 38.4447L351.743 38.4111L351.712 35.1469Z" fill="#E4101A"/>
</g>
<defs>
<clipPath id="clip0_383_325">
<rect width="218" height="220" fill="white" transform="translate(175.225)"/>
</clipPath>
</defs>
</svg>
