<svg width="145" height="1443" viewBox="0 0 145 1443" fill="none" xmlns="http://www.w3.org/2000/svg">
<g clip-path="url(#clip0_515_5448)">
<path d="M140.291 390.181L89.7266 360.874L140.291 331.815V390.181Z" fill="url(#paint0_linear_515_5448)"/>
<path d="M61.4701 539.697L0 575.213L0 504.181L61.4701 539.697Z" fill="url(#paint1_linear_515_5448)"/>
<path d="M145 755.774L80.3076 718.52L145 681.017V755.774Z" fill="url(#paint2_linear_515_5448)"/>
<path d="M125.419 6.95422L119.47 3.47711L125.419 0V6.95422Z" fill="url(#paint3_linear_515_5448)"/>
<path d="M37.1795 182.3L12.1453 196.954V167.646L37.1795 182.3Z" fill="url(#paint4_linear_515_5448)"/>
<path d="M52.5469 897.094L4.46143 925.159V869.277L52.5469 897.094Z" fill="url(#paint5_linear_515_5448)"/>
<path d="M139.051 1102.74L92.4529 1075.92L139.051 1049.09V1102.74Z" fill="url(#paint6_linear_515_5448)"/>
<path d="M32.7179 1254.74L14.376 1265.42V1244.06L32.7179 1254.74Z" fill="url(#paint7_linear_515_5448)"/>
<path d="M129.137 1443L112.282 1433.31L129.137 1423.63V1443Z" fill="url(#paint8_linear_515_5448)"/>
</g>
<defs>
<linearGradient id="paint0_linear_515_5448" x1="-1347.88" y1="1841.38" x2="2399.69" y2="-1898.62" gradientUnits="userSpaceOnUse">
<stop stop-color="#B81F26"/>
<stop offset="0.59" stop-color="#D4151E"/>
<stop offset="1" stop-color="#E4101A"/>
</linearGradient>
<linearGradient id="paint1_linear_515_5448" x1="-1317.15" y1="1872.67" x2="2430.92" y2="-1868.07" gradientUnits="userSpaceOnUse">
<stop stop-color="#B81F26"/>
<stop offset="0.59" stop-color="#D4151E"/>
<stop offset="1" stop-color="#E4101A"/>
</linearGradient>
<linearGradient id="paint2_linear_515_5448" x1="-1168.68" y1="2020.95" x2="2578.9" y2="-1719.06" gradientUnits="userSpaceOnUse">
<stop stop-color="#B81F26"/>
<stop offset="0.59" stop-color="#D4151E"/>
<stop offset="1" stop-color="#E4101A"/>
</linearGradient>
<linearGradient id="paint3_linear_515_5448" x1="-1524.11" y1="1655.1" x2="2212.53" y2="-2073.99" gradientUnits="userSpaceOnUse">
<stop stop-color="#B81F26"/>
<stop offset="0.59" stop-color="#D4151E"/>
<stop offset="1" stop-color="#E4101A"/>
</linearGradient>
<linearGradient id="paint4_linear_515_5448" x1="-1492.38" y1="1695.09" x2="2253.45" y2="-2043.18" gradientUnits="userSpaceOnUse">
<stop stop-color="#B81F26"/>
<stop offset="0.59" stop-color="#D4151E"/>
<stop offset="1" stop-color="#E4101A"/>
</linearGradient>
<linearGradient id="paint5_linear_515_5448" x1="-1137.69" y1="2051.74" x2="2609.63" y2="-1687.76" gradientUnits="userSpaceOnUse">
<stop stop-color="#B81F26"/>
<stop offset="0.59" stop-color="#D4151E"/>
<stop offset="1" stop-color="#E4101A"/>
</linearGradient>
<linearGradient id="paint6_linear_515_5448" x1="-991.701" y1="2199.02" x2="2756.86" y2="-1541.97" gradientUnits="userSpaceOnUse">
<stop stop-color="#B81F26"/>
<stop offset="0.59" stop-color="#D4151E"/>
<stop offset="1" stop-color="#E4101A"/>
</linearGradient>
<linearGradient id="paint7_linear_515_5448" x1="-957" y1="2231.81" x2="2788.09" y2="-1505.71" gradientUnits="userSpaceOnUse">
<stop stop-color="#B81F26"/>
<stop offset="0.59" stop-color="#D4151E"/>
<stop offset="1" stop-color="#E4101A"/>
</linearGradient>
<linearGradient id="paint8_linear_515_5448" x1="-814.231" y1="2375.11" x2="2931.1" y2="-1362.91" gradientUnits="userSpaceOnUse">
<stop stop-color="#B81F26"/>
<stop offset="0.59" stop-color="#D4151E"/>
<stop offset="1" stop-color="#E4101A"/>
</linearGradient>
<clipPath id="clip0_515_5448">
<rect width="145" height="1443" fill="white"/>
</clipPath>
</defs>
</svg>
