<svg width="50" height="50" viewBox="0 0 50 50" fill="none" xmlns="http://www.w3.org/2000/svg">
<path d="M5.20825 19.7918H44.7916M5.20825 19.7918V42.7085C5.20825 43.261 5.42775 43.7909 5.81845 44.1816C6.20915 44.5723 6.73905 44.7918 7.29159 44.7918H42.7083C43.2608 44.7918 43.7907 44.5723 44.1814 44.1816C44.5721 43.7909 44.7916 43.261 44.7916 42.7085V19.7918M5.20825 19.7918V10.4168C5.20825 9.86429 5.42775 9.33439 5.81845 8.94369C6.20915 8.55299 6.73905 8.3335 7.29159 8.3335H42.7083C43.2608 8.3335 43.7907 8.55299 44.1814 8.94369C44.5721 9.33439 44.7916 9.86429 44.7916 10.4168V19.7918" stroke="#201F1D" stroke-width="4" stroke-linejoin="round"/>
<path d="M16.6665 32.292L22.9165 38.542L35.4165 26.042" stroke="#201F1D" stroke-width="4" stroke-linecap="round" stroke-linejoin="round"/>
<path d="M16.6665 5.2085V13.5418M33.3332 5.2085V13.5418" stroke="#201F1D" stroke-width="4" stroke-linecap="round"/>
</svg>
