<svg width="50" height="50" viewBox="0 0 50 50" fill="none" xmlns="http://www.w3.org/2000/svg">
<path d="M20.8334 34.3749L27.0834 36.4583C27.0834 36.4583 42.7084 33.3333 44.7917 33.3333C46.8751 33.3333 46.8751 35.4166 44.7917 37.4999C42.7084 39.5833 35.4167 45.8333 29.1667 45.8333C22.9167 45.8333 18.7501 42.7083 14.5834 42.7083H4.16675" stroke="#201F1D" stroke-width="4" stroke-linecap="round" stroke-linejoin="round"/>
<path d="M4.16675 30.2083C6.25008 28.1249 10.4167 24.9999 14.5834 24.9999C18.7501 24.9999 28.6459 29.1666 30.2084 31.2499C31.7709 33.3333 27.0834 36.4583 27.0834 36.4583M16.6667 18.7499V10.4166C16.6667 9.86405 16.8862 9.33415 17.2769 8.94345C17.6676 8.55275 18.1975 8.33325 18.7501 8.33325H43.7501C44.3026 8.33325 44.8325 8.55275 45.2232 8.94345C45.6139 9.33415 45.8334 9.86405 45.8334 10.4166V27.0833" stroke="#201F1D" stroke-width="4" stroke-linecap="round" stroke-linejoin="round"/>
<path d="M26.0417 8.33325H36.4584V17.7083H26.0417V8.33325Z" stroke="#201F1D" stroke-width="4" stroke-linecap="round" stroke-linejoin="round"/>
</svg>
