<svg width="50" height="50" viewBox="0 0 50 50" fill="none" xmlns="http://www.w3.org/2000/svg">
<path d="M12.5 6.25V12.5H6.25V6.25H12.5ZM3.125 3.125V15.625H15.625V3.125H3.125ZM28.125 10.9375V17.1875H21.875V10.9375H28.125ZM18.75 7.8125V20.3125H31.25V7.8125H18.75ZM12.5 25V31.25H6.25V25H12.5ZM3.125 21.875V34.375H15.625V21.875H3.125Z" fill="#201F1D"/>
<path d="M34.375 15.625V25H25V34.375H15.625V46.875H46.875V15.625H34.375ZM28.125 28.125H34.375V34.375H28.125V28.125ZM25 43.75H18.75V37.5H25V43.75ZM34.375 43.75H28.125V37.5H34.375V43.75ZM43.75 43.75H37.5V37.5H43.75V43.75ZM43.75 34.375H37.5V28.125H43.75V34.375ZM37.5 25V18.75H43.75V25H37.5Z" fill="#201F1D"/>
</svg>
