<svg width="250" height="483" viewBox="0 0 250 483" fill="none" xmlns="http://www.w3.org/2000/svg">
<g clip-path="url(#clip0_515_5156)">
<path d="M140.815 252.42L121.979 241.521L140.815 230.664V252.42Z" fill="url(#paint0_linear_515_5156)"/>
<path d="M184.656 241.521L161.402 254.915V228.126L184.656 241.521Z" fill="url(#paint1_linear_515_5156)"/>
<path d="M194.908 226.171L169.653 211.611L194.908 197.052V226.171Z" fill="url(#paint2_linear_515_5156)"/>
<path d="M181.864 181.66L162.819 192.642V170.678L181.864 181.66Z" fill="url(#paint3_linear_515_5156)"/>
<path d="M139.19 189.689L125.229 181.661L139.19 173.632V189.689Z" fill="url(#paint4_linear_515_5156)"/>
<path d="M127.938 211.611L111.852 220.888V202.335L127.938 211.611Z" fill="url(#paint5_linear_515_5156)"/>
<path d="M129.23 271.472L111.227 281.83V261.114L129.23 271.472Z" fill="url(#paint6_linear_515_5156)"/>
<path d="M194.991 286.156L169.487 271.472L194.991 256.787V286.156Z" fill="url(#paint7_linear_515_5156)"/>
<path d="M241.957 211.612L210.702 229.624V193.558L241.957 211.612Z" fill="url(#paint8_linear_515_5156)"/>
<path d="M192.49 162.068L174.487 151.71L192.49 141.352V162.068Z" fill="url(#paint9_linear_515_5156)"/>
<path d="M122.437 151.71L114.644 156.202V147.217L122.437 151.71Z" fill="url(#paint10_linear_515_5156)"/>
<path d="M87.1812 219.557L73.3872 211.611L87.1812 203.625V219.557Z" fill="url(#paint11_linear_515_5156)"/>
<path d="M140.899 312.405L121.812 301.423L140.899 290.441V312.405Z" fill="url(#paint12_linear_515_5156)"/>
<path d="M183.781 301.423L161.86 314.027V288.777L183.781 301.423Z" fill="url(#paint13_linear_515_5156)"/>
<path d="M241.665 271.472L210.827 289.234V253.709L241.665 271.472Z" fill="url(#paint14_linear_515_5156)"/>
<path d="M250 261.53L215.286 241.521L250 221.553V261.53Z" fill="url(#paint15_linear_515_5156)"/>
<path d="M249 199.964L217.286 181.661L249 163.399V199.964Z" fill="url(#paint16_linear_515_5156)"/>
<path d="M237.123 151.71L213.119 165.562V137.899L237.123 151.71Z" fill="url(#paint17_linear_515_5156)"/>
<path d="M176.196 121.8L165.653 127.874V115.727L176.196 121.8Z" fill="url(#paint18_linear_515_5156)"/>
<path d="M136.439 125.045L130.772 121.8L136.439 118.514V125.045Z" fill="url(#paint19_linear_515_5156)"/>
<path d="M84.4723 154.996L78.8047 151.71L84.4723 148.465V154.996Z" fill="url(#paint20_linear_515_5156)"/>
<path d="M71.6787 181.661L62.0938 187.193V176.128L71.6787 181.661Z" fill="url(#paint21_linear_515_5156)"/>
<path d="M74.4291 241.521L60.7185 249.466V233.617L74.4291 241.521Z" fill="url(#paint22_linear_515_5156)"/>
<path d="M87.8063 280.499L72.1787 271.472L87.8063 262.445V280.499Z" fill="url(#paint23_linear_515_5156)"/>
<path d="M86.7645 338.57L74.2207 331.332L86.7645 324.135V338.57Z" fill="url(#paint24_linear_515_5156)"/>
<path d="M127.396 331.332L112.144 340.151V322.513L127.396 331.332Z" fill="url(#paint25_linear_515_5156)"/>
<path d="M193.116 342.813L173.237 331.332L193.116 319.892V342.813Z" fill="url(#paint26_linear_515_5156)"/>
<path d="M237.248 331.332L213.035 345.309V317.396L237.248 331.332Z" fill="url(#paint27_linear_515_5156)"/>
<path d="M248.75 319.268L217.745 301.422L248.75 283.535V319.268Z" fill="url(#paint28_linear_515_5156)"/>
<path d="M245.374 133.822L224.496 121.8L245.374 109.737V133.822Z" fill="url(#paint29_linear_515_5156)"/>
<path d="M229.371 91.8494L216.994 99.0044V84.7361L229.371 91.8494Z" fill="url(#paint30_linear_515_5156)"/>
<path d="M189.24 96.6333L180.947 91.8495L189.24 87.0657V96.6333Z" fill="url(#paint31_linear_515_5156)"/>
<path d="M117.936 91.8496L116.853 92.4735V91.2256L117.936 91.8496Z" fill="url(#paint32_linear_515_5156)"/>
<path d="M66.2611 121.8L64.8025 122.632V120.969L66.2611 121.8Z" fill="url(#paint33_linear_515_5156)"/>
<path d="M33.4639 186.569L25.0042 181.661L33.4639 176.752V186.569Z" fill="url(#paint34_linear_515_5156)"/>
<path d="M20.2118 211.611L9.87671 217.56V205.663L20.2118 211.611Z" fill="url(#paint35_linear_515_5156)"/>
<path d="M34.2558 247.802L23.4207 241.521L34.2558 235.281V247.802Z" fill="url(#paint36_linear_515_5156)"/>
<path d="M73.8457 301.423L61.0103 308.786V294.018L73.8457 301.423Z" fill="url(#paint37_linear_515_5156)"/>
<path d="M69.9282 361.283L62.9688 365.318V357.248L69.9282 361.283Z" fill="url(#paint38_linear_515_5156)"/>
<path d="M138.523 368.188L126.563 361.283L138.523 354.377V368.188Z" fill="url(#paint39_linear_515_5156)"/>
<path d="M178.321 361.283L164.569 369.187V353.379L178.321 361.283Z" fill="url(#paint40_linear_515_5156)"/>
<path d="M245.708 373.846L223.871 361.283L245.708 348.72V373.846Z" fill="url(#paint41_linear_515_5156)"/>
<path d="M241.124 66.5575L233.039 61.8984L241.124 57.281V66.5575Z" fill="url(#paint42_linear_515_5156)"/>
<path d="M171.529 61.8984L167.986 63.9784V59.8601L171.529 61.8984Z" fill="url(#paint43_linear_515_5156)"/>
<path d="M134.939 62.5641L133.772 61.8985L134.939 61.2329V62.5641Z" fill="url(#paint44_linear_515_5156)"/>
<path d="M31.0052 122.383L29.9634 121.8L31.0052 121.218V122.383Z" fill="url(#paint45_linear_515_5156)"/>
<path d="M16.1694 151.71L11.9187 154.164V149.297L16.1694 151.71Z" fill="url(#paint46_linear_515_5156)"/>
<path d="M18.7114 271.472L10.6267 276.131V266.813L18.7114 271.472Z" fill="url(#paint47_linear_515_5156)"/>
<path d="M33.2555 305.915L25.4209 301.423L33.2555 296.888V305.915Z" fill="url(#paint48_linear_515_5156)"/>
<path d="M84.014 393.646L79.8049 391.234L84.014 388.779V393.646Z" fill="url(#paint49_linear_515_5156)"/>
<path d="M121.145 391.234L115.269 394.603V387.823L121.145 391.234Z" fill="url(#paint50_linear_515_5156)"/>
<path d="M189.573 396.558L180.28 391.234L189.573 385.867V396.558Z" fill="url(#paint51_linear_515_5156)"/>
<path d="M229.955 391.234L216.703 398.846V383.58L229.955 391.234Z" fill="url(#paint52_linear_515_5156)"/>
<path d="M223.787 31.9892L219.787 34.2771V29.6597L223.787 31.9892Z" fill="url(#paint53_linear_515_5156)"/>
<path d="M187.365 33.4869L184.739 31.9893L187.365 30.4502V33.4869Z" fill="url(#paint54_linear_515_5156)"/>
<path d="M15.4192 331.332L12.2937 333.121V329.543L15.4192 331.332Z" fill="url(#paint55_linear_515_5156)"/>
<path d="M31.5887 362.905L28.7549 361.283L31.5887 359.66V362.905Z" fill="url(#paint56_linear_515_5156)"/>
<path d="M135.189 422.308L133.23 421.143L135.189 420.02V422.308Z" fill="url(#paint57_linear_515_5156)"/>
<path d="M171.404 421.143L168.028 423.098V419.229L171.404 421.143Z" fill="url(#paint58_linear_515_5156)"/>
<path d="M242.124 427.508L231.08 421.143L242.124 414.779V427.508Z" fill="url(#paint59_linear_515_5156)"/>
<path d="M239.623 4.07665L236.081 2.03833L239.623 0V4.07665Z" fill="url(#paint60_linear_515_5156)"/>
<path d="M169.737 2.03824L168.862 2.53743V1.53906L169.737 2.03824Z" fill="url(#paint61_linear_515_5156)"/>
<path d="M65.9277 2.03843L64.9692 2.62081V1.45605L65.9277 2.03843Z" fill="url(#paint62_linear_515_5156)"/>
<path d="M30.9218 2.53743L30.0466 2.03824L30.9218 1.53906V2.53743Z" fill="url(#paint63_linear_515_5156)"/>
<path d="M186.865 451.76L185.698 451.094L186.865 450.428V451.76Z" fill="url(#paint64_linear_515_5156)"/>
<path d="M224.162 451.094L219.578 453.715V448.473L224.162 451.094Z" fill="url(#paint65_linear_515_5156)"/>
<path d="M239.581 483L236.123 481.003L239.581 479.048V483Z" fill="url(#paint66_linear_515_5156)"/>
</g>
<defs>
<linearGradient id="paint0_linear_515_5156" x1="-134.106" y1="511.994" x2="493.448" y2="-116.735" gradientUnits="userSpaceOnUse">
<stop stop-color="#B81F26"/>
<stop offset="0.59" stop-color="#D4151E"/>
<stop offset="1" stop-color="#E4101A"/>
</linearGradient>
<linearGradient id="paint1_linear_515_5156" x1="-119.395" y1="526.72" x2="508.2" y2="-102.009" gradientUnits="userSpaceOnUse">
<stop stop-color="#B81F26"/>
<stop offset="0.59" stop-color="#D4151E"/>
<stop offset="1" stop-color="#E4101A"/>
</linearGradient>
<linearGradient id="paint2_linear_515_5156" x1="-122.77" y1="523.351" x2="504.867" y2="-105.378" gradientUnits="userSpaceOnUse">
<stop stop-color="#B81F26"/>
<stop offset="0.59" stop-color="#D4151E"/>
<stop offset="1" stop-color="#E4101A"/>
</linearGradient>
<linearGradient id="paint3_linear_515_5156" x1="-149.192" y1="497.102" x2="478.571" y2="-131.752" gradientUnits="userSpaceOnUse">
<stop stop-color="#B81F26"/>
<stop offset="0.59" stop-color="#D4151E"/>
<stop offset="1" stop-color="#E4101A"/>
</linearGradient>
<linearGradient id="paint4_linear_515_5156" x1="-164.444" y1="481.793" x2="463.234" y2="-146.978" gradientUnits="userSpaceOnUse">
<stop stop-color="#B81F26"/>
<stop offset="0.59" stop-color="#D4151E"/>
<stop offset="1" stop-color="#E4101A"/>
</linearGradient>
<linearGradient id="paint5_linear_515_5156" x1="-159.943" y1="486.328" x2="467.777" y2="-142.526" gradientUnits="userSpaceOnUse">
<stop stop-color="#B81F26"/>
<stop offset="0.59" stop-color="#D4151E"/>
<stop offset="1" stop-color="#E4101A"/>
</linearGradient>
<linearGradient id="paint6_linear_515_5156" x1="-130.063" y1="516.112" x2="497.615" y2="-112.7" gradientUnits="userSpaceOnUse">
<stop stop-color="#B81F26"/>
<stop offset="0.59" stop-color="#D4151E"/>
<stop offset="1" stop-color="#E4101A"/>
</linearGradient>
<linearGradient id="paint7_linear_515_5156" x1="-92.8072" y1="553.343" x2="534.871" y2="-75.4694" gradientUnits="userSpaceOnUse">
<stop stop-color="#B81F26"/>
<stop offset="0.59" stop-color="#D4151E"/>
<stop offset="1" stop-color="#E4101A"/>
</linearGradient>
<linearGradient id="paint8_linear_515_5156" x1="-108.935" y1="537.245" x2="518.744" y2="-91.5675" gradientUnits="userSpaceOnUse">
<stop stop-color="#B81F26"/>
<stop offset="0.59" stop-color="#D4151E"/>
<stop offset="1" stop-color="#E4101A"/>
</linearGradient>
<linearGradient id="paint9_linear_515_5156" x1="-153.276" y1="493.067" x2="474.486" y2="-135.829" gradientUnits="userSpaceOnUse">
<stop stop-color="#B81F26"/>
<stop offset="0.59" stop-color="#D4151E"/>
<stop offset="1" stop-color="#E4101A"/>
</linearGradient>
<linearGradient id="paint10_linear_515_5156" x1="-189.365" y1="456.793" x2="438.189" y2="-171.852" gradientUnits="userSpaceOnUse">
<stop stop-color="#B81F26"/>
<stop offset="0.59" stop-color="#D4151E"/>
<stop offset="1" stop-color="#E4101A"/>
</linearGradient>
<linearGradient id="paint11_linear_515_5156" x1="-175.363" y1="470.77" x2="452.149" y2="-157.875" gradientUnits="userSpaceOnUse">
<stop stop-color="#B81F26"/>
<stop offset="0.59" stop-color="#D4151E"/>
<stop offset="1" stop-color="#E4101A"/>
</linearGradient>
<linearGradient id="paint12_linear_515_5156" x1="-104.142" y1="541.945" x2="523.453" y2="-86.7839" gradientUnits="userSpaceOnUse">
<stop stop-color="#B81F26"/>
<stop offset="0.59" stop-color="#D4151E"/>
<stop offset="1" stop-color="#E4101A"/>
</linearGradient>
<linearGradient id="paint13_linear_515_5156" x1="-89.3481" y1="556.796" x2="538.372" y2="-72.0579" gradientUnits="userSpaceOnUse">
<stop stop-color="#B81F26"/>
<stop offset="0.59" stop-color="#D4151E"/>
<stop offset="1" stop-color="#E4101A"/>
</linearGradient>
<linearGradient id="paint14_linear_515_5156" x1="-78.9714" y1="567.237" x2="548.832" y2="-61.6587" gradientUnits="userSpaceOnUse">
<stop stop-color="#B81F26"/>
<stop offset="0.59" stop-color="#D4151E"/>
<stop offset="1" stop-color="#E4101A"/>
</linearGradient>
<linearGradient id="paint15_linear_515_5156" x1="-81.2219" y1="564.866" x2="546.415" y2="-63.9463" gradientUnits="userSpaceOnUse">
<stop stop-color="#B81F26"/>
<stop offset="0.59" stop-color="#D4151E"/>
<stop offset="1" stop-color="#E4101A"/>
</linearGradient>
<linearGradient id="paint16_linear_515_5156" x1="-111.435" y1="534.749" x2="516.285" y2="-94.0636" gradientUnits="userSpaceOnUse">
<stop stop-color="#B81F26"/>
<stop offset="0.59" stop-color="#D4151E"/>
<stop offset="1" stop-color="#E4101A"/>
</linearGradient>
<linearGradient id="paint17_linear_515_5156" x1="-138.482" y1="507.751" x2="489.238" y2="-121.103" gradientUnits="userSpaceOnUse">
<stop stop-color="#B81F26"/>
<stop offset="0.59" stop-color="#D4151E"/>
<stop offset="1" stop-color="#E4101A"/>
</linearGradient>
<linearGradient id="paint18_linear_515_5156" x1="-178.696" y1="467.775" x2="449.149" y2="-161.203" gradientUnits="userSpaceOnUse">
<stop stop-color="#B81F26"/>
<stop offset="0.59" stop-color="#D4151E"/>
<stop offset="1" stop-color="#E4101A"/>
</linearGradient>
<linearGradient id="paint19_linear_515_5156" x1="-194.783" y1="451.219" x2="432.604" y2="-177.303" gradientUnits="userSpaceOnUse">
<stop stop-color="#B81F26"/>
<stop offset="0.59" stop-color="#D4151E"/>
<stop offset="1" stop-color="#E4101A"/>
</linearGradient>
<linearGradient id="paint20_linear_515_5156" x1="-206.076" y1="440.57" x2="421.935" y2="-188.576" gradientUnits="userSpaceOnUse">
<stop stop-color="#B81F26"/>
<stop offset="0.59" stop-color="#D4151E"/>
<stop offset="1" stop-color="#E4101A"/>
</linearGradient>
<linearGradient id="paint21_linear_515_5156" x1="-200.533" y1="445.811" x2="427.145" y2="-183.002" gradientUnits="userSpaceOnUse">
<stop stop-color="#B81F26"/>
<stop offset="0.59" stop-color="#D4151E"/>
<stop offset="1" stop-color="#E4101A"/>
</linearGradient>
<linearGradient id="paint22_linear_515_5156" x1="-170.778" y1="475.471" x2="456.9" y2="-153.3" gradientUnits="userSpaceOnUse">
<stop stop-color="#B81F26"/>
<stop offset="0.59" stop-color="#D4151E"/>
<stop offset="1" stop-color="#E4101A"/>
</linearGradient>
<linearGradient id="paint23_linear_515_5156" x1="-145.274" y1="500.846" x2="482.28" y2="-127.841" gradientUnits="userSpaceOnUse">
<stop stop-color="#B81F26"/>
<stop offset="0.59" stop-color="#D4151E"/>
<stop offset="1" stop-color="#E4101A"/>
</linearGradient>
<linearGradient id="paint24_linear_515_5156" x1="-115.519" y1="530.63" x2="512.076" y2="-98.1402" gradientUnits="userSpaceOnUse">
<stop stop-color="#B81F26"/>
<stop offset="0.59" stop-color="#D4151E"/>
<stop offset="1" stop-color="#E4101A"/>
</linearGradient>
<linearGradient id="paint25_linear_515_5156" x1="-99.8915" y1="546.188" x2="527.704" y2="-82.4993" gradientUnits="userSpaceOnUse">
<stop stop-color="#B81F26"/>
<stop offset="0.59" stop-color="#D4151E"/>
<stop offset="1" stop-color="#E4101A"/>
</linearGradient>
<linearGradient id="paint26_linear_515_5156" x1="-63.1771" y1="582.961" x2="564.585" y2="-45.8926" gradientUnits="userSpaceOnUse">
<stop stop-color="#B81F26"/>
<stop offset="0.59" stop-color="#D4151E"/>
<stop offset="1" stop-color="#E4101A"/>
</linearGradient>
<linearGradient id="paint27_linear_515_5156" x1="-48.5499" y1="597.562" x2="579.17" y2="-31.2917" gradientUnits="userSpaceOnUse">
<stop stop-color="#B81F26"/>
<stop offset="0.59" stop-color="#D4151E"/>
<stop offset="1" stop-color="#E4101A"/>
</linearGradient>
<linearGradient id="paint28_linear_515_5156" x1="-51.4669" y1="594.567" x2="576.17" y2="-34.2034" gradientUnits="userSpaceOnUse">
<stop stop-color="#B81F26"/>
<stop offset="0.59" stop-color="#D4151E"/>
<stop offset="1" stop-color="#E4101A"/>
</linearGradient>
<linearGradient id="paint29_linear_515_5156" x1="-142.024" y1="504.132" x2="485.571" y2="-124.639" gradientUnits="userSpaceOnUse">
<stop stop-color="#B81F26"/>
<stop offset="0.59" stop-color="#D4151E"/>
<stop offset="1" stop-color="#E4101A"/>
</linearGradient>
<linearGradient id="paint30_linear_515_5156" x1="-167.778" y1="478.549" x2="459.941" y2="-150.347" gradientUnits="userSpaceOnUse">
<stop stop-color="#B81F26"/>
<stop offset="0.59" stop-color="#D4151E"/>
<stop offset="1" stop-color="#E4101A"/>
</linearGradient>
<linearGradient id="paint31_linear_515_5156" x1="-183.781" y1="462.45" x2="443.856" y2="-166.279" gradientUnits="userSpaceOnUse">
<stop stop-color="#B81F26"/>
<stop offset="0.59" stop-color="#D4151E"/>
<stop offset="1" stop-color="#E4101A"/>
</linearGradient>
<linearGradient id="paint32_linear_515_5156" x1="-219.076" y1="427.382" x2="408.726" y2="-201.509" gradientUnits="userSpaceOnUse">
<stop stop-color="#B81F26"/>
<stop offset="0.59" stop-color="#D4151E"/>
<stop offset="1" stop-color="#E4101A"/>
</linearGradient>
<linearGradient id="paint33_linear_515_5156" x1="-230.538" y1="416.9" x2="398.263" y2="-213.078" gradientUnits="userSpaceOnUse">
<stop stop-color="#B81F26"/>
<stop offset="0.59" stop-color="#D4151E"/>
<stop offset="1" stop-color="#E4101A"/>
</linearGradient>
<linearGradient id="paint34_linear_515_5156" x1="-216.744" y1="429.629" x2="410.933" y2="-199.183" gradientUnits="userSpaceOnUse">
<stop stop-color="#B81F26"/>
<stop offset="0.59" stop-color="#D4151E"/>
<stop offset="1" stop-color="#E4101A"/>
</linearGradient>
<linearGradient id="paint35_linear_515_5156" x1="-211.577" y1="434.829" x2="416.185" y2="-194.067" gradientUnits="userSpaceOnUse">
<stop stop-color="#B81F26"/>
<stop offset="0.59" stop-color="#D4151E"/>
<stop offset="1" stop-color="#E4101A"/>
</linearGradient>
<linearGradient id="paint36_linear_515_5156" x1="-186.614" y1="459.705" x2="441.105" y2="-169.108" gradientUnits="userSpaceOnUse">
<stop stop-color="#B81F26"/>
<stop offset="0.59" stop-color="#D4151E"/>
<stop offset="1" stop-color="#E4101A"/>
</linearGradient>
<linearGradient id="paint37_linear_515_5156" x1="-140.69" y1="505.463" x2="486.906" y2="-123.265" gradientUnits="userSpaceOnUse">
<stop stop-color="#B81F26"/>
<stop offset="0.59" stop-color="#D4151E"/>
<stop offset="1" stop-color="#E4101A"/>
</linearGradient>
<linearGradient id="paint38_linear_515_5156" x1="-110.394" y1="535.789" x2="517.369" y2="-93.1071" gradientUnits="userSpaceOnUse">
<stop stop-color="#B81F26"/>
<stop offset="0.59" stop-color="#D4151E"/>
<stop offset="1" stop-color="#E4101A"/>
</linearGradient>
<linearGradient id="paint39_linear_515_5156" x1="-74.5959" y1="571.522" x2="553.083" y2="-57.3324" gradientUnits="userSpaceOnUse">
<stop stop-color="#B81F26"/>
<stop offset="0.59" stop-color="#D4151E"/>
<stop offset="1" stop-color="#E4101A"/>
</linearGradient>
<linearGradient id="paint40_linear_515_5156" x1="-58.8431" y1="587.204" x2="568.794" y2="-41.5658" gradientUnits="userSpaceOnUse">
<stop stop-color="#B81F26"/>
<stop offset="0.59" stop-color="#D4151E"/>
<stop offset="1" stop-color="#E4101A"/>
</linearGradient>
<linearGradient id="paint41_linear_515_5156" x1="-22.0453" y1="623.936" x2="605.592" y2="-4.83436" gradientUnits="userSpaceOnUse">
<stop stop-color="#B81F26"/>
<stop offset="0.59" stop-color="#D4151E"/>
<stop offset="1" stop-color="#E4101A"/>
</linearGradient>
<linearGradient id="paint42_linear_515_5156" x1="-172.863" y1="473.432" x2="454.857" y2="-155.381" gradientUnits="userSpaceOnUse">
<stop stop-color="#B81F26"/>
<stop offset="0.59" stop-color="#D4151E"/>
<stop offset="1" stop-color="#E4101A"/>
</linearGradient>
<linearGradient id="paint43_linear_515_5156" x1="-208.242" y1="438.24" x2="419.561" y2="-190.696" gradientUnits="userSpaceOnUse">
<stop stop-color="#B81F26"/>
<stop offset="0.59" stop-color="#D4151E"/>
<stop offset="1" stop-color="#E4101A"/>
</linearGradient>
<linearGradient id="paint44_linear_515_5156" x1="-224.541" y1="420.477" x2="401.972" y2="-207.132" gradientUnits="userSpaceOnUse">
<stop stop-color="#B81F26"/>
<stop offset="0.59" stop-color="#D4151E"/>
<stop offset="1" stop-color="#E4101A"/>
</linearGradient>
<linearGradient id="paint45_linear_515_5156" x1="-246.374" y1="398.431" x2="379.475" y2="-228.547" gradientUnits="userSpaceOnUse">
<stop stop-color="#B81F26"/>
<stop offset="0.59" stop-color="#D4151E"/>
<stop offset="1" stop-color="#E4101A"/>
</linearGradient>
<linearGradient id="paint46_linear_515_5156" x1="-241.04" y1="405.128" x2="386.348" y2="-223.393" gradientUnits="userSpaceOnUse">
<stop stop-color="#B81F26"/>
<stop offset="0.59" stop-color="#D4151E"/>
<stop offset="1" stop-color="#E4101A"/>
</linearGradient>
<linearGradient id="paint47_linear_515_5156" x1="-181.405" y1="464.863" x2="446.231" y2="-163.907" gradientUnits="userSpaceOnUse">
<stop stop-color="#B81F26"/>
<stop offset="0.59" stop-color="#D4151E"/>
<stop offset="1" stop-color="#E4101A"/>
</linearGradient>
<linearGradient id="paint48_linear_515_5156" x1="-156.818" y1="489.489" x2="470.985" y2="-139.448" gradientUnits="userSpaceOnUse">
<stop stop-color="#B81F26"/>
<stop offset="0.59" stop-color="#D4151E"/>
<stop offset="1" stop-color="#E4101A"/>
</linearGradient>
<linearGradient id="paint49_linear_515_5156" x1="-86.0561" y1="560.04" x2="541.58" y2="-68.7306" gradientUnits="userSpaceOnUse">
<stop stop-color="#B81F26"/>
<stop offset="0.59" stop-color="#D4151E"/>
<stop offset="1" stop-color="#E4101A"/>
</linearGradient>
<linearGradient id="paint50_linear_515_5156" x1="-69.3031" y1="576.68" x2="558.25" y2="-51.9658" gradientUnits="userSpaceOnUse">
<stop stop-color="#B81F26"/>
<stop offset="0.59" stop-color="#D4151E"/>
<stop offset="1" stop-color="#E4101A"/>
</linearGradient>
<linearGradient id="paint51_linear_515_5156" x1="-33.881" y1="612.33" x2="594.089" y2="-16.7752" gradientUnits="userSpaceOnUse">
<stop stop-color="#B81F26"/>
<stop offset="0.59" stop-color="#D4151E"/>
<stop offset="1" stop-color="#E4101A"/>
</linearGradient>
<linearGradient id="paint52_linear_515_5156" x1="-17.8362" y1="628.137" x2="609.8" y2="-0.633557" gradientUnits="userSpaceOnUse">
<stop stop-color="#B81F26"/>
<stop offset="0.59" stop-color="#D4151E"/>
<stop offset="1" stop-color="#E4101A"/>
</linearGradient>
<linearGradient id="paint53_linear_515_5156" x1="-197.366" y1="449.222" x2="430.52" y2="-179.798" gradientUnits="userSpaceOnUse">
<stop stop-color="#B81F26"/>
<stop offset="0.59" stop-color="#D4151E"/>
<stop offset="1" stop-color="#E4101A"/>
</linearGradient>
<linearGradient id="paint54_linear_515_5156" x1="-214.492" y1="432.541" x2="413.727" y2="-196.81" gradientUnits="userSpaceOnUse">
<stop stop-color="#B81F26"/>
<stop offset="0.59" stop-color="#D4151E"/>
<stop offset="1" stop-color="#E4101A"/>
</linearGradient>
<linearGradient id="paint55_linear_515_5156" x1="-150.984" y1="495.022" x2="476.238" y2="-133.373" gradientUnits="userSpaceOnUse">
<stop stop-color="#B81F26"/>
<stop offset="0.59" stop-color="#D4151E"/>
<stop offset="1" stop-color="#E4101A"/>
</linearGradient>
<linearGradient id="paint56_linear_515_5156" x1="-127.021" y1="518.982" x2="500.324" y2="-109.455" gradientUnits="userSpaceOnUse">
<stop stop-color="#B81F26"/>
<stop offset="0.59" stop-color="#D4151E"/>
<stop offset="1" stop-color="#E4101A"/>
</linearGradient>
<linearGradient id="paint57_linear_515_5156" x1="-45.3824" y1="600.972" x2="582.873" y2="-28.3811" gradientUnits="userSpaceOnUse">
<stop stop-color="#B81F26"/>
<stop offset="0.59" stop-color="#D4151E"/>
<stop offset="1" stop-color="#E4101A"/>
</linearGradient>
<linearGradient id="paint58_linear_515_5156" x1="-28.1716" y1="617.738" x2="599.341" y2="-10.909" gradientUnits="userSpaceOnUse">
<stop stop-color="#B81F26"/>
<stop offset="0.59" stop-color="#D4151E"/>
<stop offset="1" stop-color="#E4101A"/>
</linearGradient>
<linearGradient id="paint59_linear_515_5156" x1="7.25131" y1="653.262" x2="635.013" y2="24.3676" gradientUnits="userSpaceOnUse">
<stop stop-color="#B81F26"/>
<stop offset="0.59" stop-color="#D4151E"/>
<stop offset="1" stop-color="#E4101A"/>
</linearGradient>
<linearGradient id="paint60_linear_515_5156" x1="-202.825" y1="442.899" x2="424.438" y2="-185.454" gradientUnits="userSpaceOnUse">
<stop stop-color="#B81F26"/>
<stop offset="0.59" stop-color="#D4151E"/>
<stop offset="1" stop-color="#E4101A"/>
</linearGradient>
<linearGradient id="paint61_linear_515_5156" x1="-238.371" y1="408.747" x2="389.89" y2="-220.646" gradientUnits="userSpaceOnUse">
<stop stop-color="#B81F26"/>
<stop offset="0.59" stop-color="#D4151E"/>
<stop offset="1" stop-color="#E4101A"/>
</linearGradient>
<linearGradient id="paint62_linear_515_5156" x1="-289.547" y1="356.125" x2="337.382" y2="-271.978" gradientUnits="userSpaceOnUse">
<stop stop-color="#B81F26"/>
<stop offset="0.59" stop-color="#D4151E"/>
<stop offset="1" stop-color="#E4101A"/>
</linearGradient>
<linearGradient id="paint63_linear_515_5156" x1="-306.926" y1="339.111" x2="320.336" y2="-289.285" gradientUnits="userSpaceOnUse">
<stop stop-color="#B81F26"/>
<stop offset="0.59" stop-color="#D4151E"/>
<stop offset="1" stop-color="#E4101A"/>
</linearGradient>
<linearGradient id="paint64_linear_515_5156" x1="-4.33308" y1="641.698" x2="623.428" y2="12.8054" gradientUnits="userSpaceOnUse">
<stop stop-color="#B81F26"/>
<stop offset="0.59" stop-color="#D4151E"/>
<stop offset="1" stop-color="#E4101A"/>
</linearGradient>
<linearGradient id="paint65_linear_515_5156" x1="12.6268" y1="658.629" x2="640.39" y2="29.7323" gradientUnits="userSpaceOnUse">
<stop stop-color="#B81F26"/>
<stop offset="0.59" stop-color="#D4151E"/>
<stop offset="1" stop-color="#E4101A"/>
</linearGradient>
<linearGradient id="paint66_linear_515_5156" x1="36.7972" y1="682.672" x2="664.474" y2="53.9001" gradientUnits="userSpaceOnUse">
<stop stop-color="#B81F26"/>
<stop offset="0.59" stop-color="#D4151E"/>
<stop offset="1" stop-color="#E4101A"/>
</linearGradient>
<clipPath id="clip0_515_5156">
<rect width="250" height="483" fill="white"/>
</clipPath>
</defs>
</svg>
