<svg width="231" height="24" viewBox="0 0 231 24" fill="none" xmlns="http://www.w3.org/2000/svg">
<g clip-path="url(#clip0_519_8275)">
<path d="M62.4615 0.755412L57.77 8.86626L53.1182 0.755412H62.4615Z" fill="url(#paint0_linear_519_8275)"/>
<path d="M86.3965 13.3988L92.082 23.259H80.7109L86.3965 13.3988Z" fill="url(#paint1_linear_519_8275)"/>
<path d="M120.987 -3.8147e-06L115.023 10.3771L109.02 -3.8147e-06H120.987Z" fill="url(#paint2_linear_519_8275)"/>
<path d="M1.11325 3.14095L0.556627 4.09517L0 3.14095H1.11325Z" fill="url(#paint3_linear_519_8275)"/>
<path d="M29.1827 17.2952L31.5285 21.3108H26.8369L29.1827 17.2952Z" fill="url(#paint4_linear_519_8275)"/>
<path d="M143.609 14.8301L148.102 22.5434H139.156L143.609 14.8301Z" fill="url(#paint5_linear_519_8275)"/>
<path d="M176.53 0.954207L172.236 8.42891L167.942 0.954207L176.53 0.954207Z" fill="url(#paint6_linear_519_8275)"/>
<path d="M200.863 18.0108L202.573 20.953H199.153L200.863 18.0108Z" fill="url(#paint7_linear_519_8275)"/>
<path d="M231 2.54457L229.449 5.24818L227.898 2.54457H231Z" fill="url(#paint8_linear_519_8275)"/>
</g>
<defs>
<linearGradient id="paint0_linear_519_8275" x1="294.774" y1="239.469" x2="-305.151" y2="-360.456" gradientUnits="userSpaceOnUse">
<stop stop-color="#B81F26"/>
<stop offset="0.59" stop-color="#D4151E"/>
<stop offset="1" stop-color="#E4101A"/>
</linearGradient>
<linearGradient id="paint1_linear_519_8275" x1="299.783" y1="234.539" x2="-300.26" y2="-365.465" gradientUnits="userSpaceOnUse">
<stop stop-color="#B81F26"/>
<stop offset="0.59" stop-color="#D4151E"/>
<stop offset="1" stop-color="#E4101A"/>
</linearGradient>
<linearGradient id="paint2_linear_519_8275" x1="323.52" y1="210.723" x2="-276.405" y2="-389.201" gradientUnits="userSpaceOnUse">
<stop stop-color="#B81F26"/>
<stop offset="0.59" stop-color="#D4151E"/>
<stop offset="1" stop-color="#E4101A"/>
</linearGradient>
<linearGradient id="paint3_linear_519_8275" x1="264.954" y1="267.737" x2="-333.22" y2="-330.438" gradientUnits="userSpaceOnUse">
<stop stop-color="#B81F26"/>
<stop offset="0.59" stop-color="#D4151E"/>
<stop offset="1" stop-color="#E4101A"/>
</linearGradient>
<linearGradient id="paint4_linear_519_8275" x1="271.355" y1="262.648" x2="-328.291" y2="-336.998" gradientUnits="userSpaceOnUse">
<stop stop-color="#B81F26"/>
<stop offset="0.59" stop-color="#D4151E"/>
<stop offset="1" stop-color="#E4101A"/>
</linearGradient>
<linearGradient id="paint5_linear_519_8275" x1="328.449" y1="205.753" x2="-271.396" y2="-394.131" gradientUnits="userSpaceOnUse">
<stop stop-color="#B81F26"/>
<stop offset="0.59" stop-color="#D4151E"/>
<stop offset="1" stop-color="#E4101A"/>
</linearGradient>
<linearGradient id="paint6_linear_519_8275" x1="352.027" y1="182.335" x2="-248.057" y2="-417.748" gradientUnits="userSpaceOnUse">
<stop stop-color="#B81F26"/>
<stop offset="0.59" stop-color="#D4151E"/>
<stop offset="1" stop-color="#E4101A"/>
</linearGradient>
<linearGradient id="paint7_linear_519_8275" x1="357.275" y1="176.769" x2="-242.252" y2="-422.758" gradientUnits="userSpaceOnUse">
<stop stop-color="#B81F26"/>
<stop offset="0.59" stop-color="#D4151E"/>
<stop offset="1" stop-color="#E4101A"/>
</linearGradient>
<linearGradient id="paint8_linear_519_8275" x1="380.215" y1="153.867" x2="-219.391" y2="-445.698" gradientUnits="userSpaceOnUse">
<stop stop-color="#B81F26"/>
<stop offset="0.59" stop-color="#D4151E"/>
<stop offset="1" stop-color="#E4101A"/>
</linearGradient>
<clipPath id="clip0_519_8275">
<rect width="23.259" height="231" fill="white" transform="matrix(0 -1 1 0 0 23.259)"/>
</clipPath>
</defs>
</svg>
