<svg width="20" height="20" viewBox="0 0 20 20" fill="none" xmlns="http://www.w3.org/2000/svg">
<path d="M14.4167 5.25002C14.3396 5.17277 14.248 5.11148 14.1472 5.06966C14.0464 5.02784 13.9383 5.00632 13.8292 5.00632C13.72 5.00632 13.6119 5.02784 13.5111 5.06966C13.4103 5.11148 13.3188 5.17277 13.2417 5.25002L8.54166 9.95002L9.71666 11.125L14.4167 6.41669C14.7333 6.10002 14.7333 5.56669 14.4167 5.25002ZM17.95 5.24169L9.71666 13.475L6.81666 10.5834C6.66084 10.4275 6.44951 10.34 6.22916 10.34C6.0088 10.34 5.79747 10.4275 5.64166 10.5834C5.48584 10.7392 5.39831 10.9505 5.39831 11.1709C5.39831 11.3912 5.48584 11.6025 5.64166 11.7584L9.12499 15.2417C9.44999 15.5667 9.97499 15.5667 10.3 15.2417L19.125 6.42502C19.2022 6.34793 19.2635 6.25635 19.3054 6.15554C19.3472 6.05473 19.3687 5.94666 19.3687 5.83752C19.3687 5.72838 19.3472 5.62031 19.3054 5.5195C19.2635 5.41869 19.2022 5.32711 19.125 5.25002H19.1167C19.0415 5.17135 18.9513 5.10859 18.8514 5.06546C18.7515 5.02233 18.6439 4.9997 18.5351 4.99892C18.4263 4.99814 18.3184 5.01923 18.2179 5.06093C18.1174 5.10264 18.0263 5.1641 17.95 5.24169ZM0.933325 11.7667L4.41666 15.25C4.74166 15.575 5.26666 15.575 5.59166 15.25L6.17499 14.6667L2.10833 10.5834C2.03123 10.5061 1.93966 10.4448 1.83885 10.403C1.73803 10.3612 1.62997 10.3396 1.52083 10.3396C1.41168 10.3396 1.30362 10.3612 1.2028 10.403C1.10199 10.4448 1.01042 10.5061 0.933325 10.5834C0.608325 10.9084 0.608325 11.4417 0.933325 11.7667Z" fill="#2EE410"/>
</svg>
