<svg width="19" height="19" viewBox="0 0 19 19" fill="none" xmlns="http://www.w3.org/2000/svg">
<path fill-rule="evenodd" clip-rule="evenodd" d="M18.5166 0.838835C18.7297 1.05194 18.8494 1.34098 18.8494 1.64237C18.8494 1.94375 18.7297 2.23279 18.5166 2.4459L11.2848 9.67767L18.5166 16.9094C18.7297 17.1226 18.8494 17.4116 18.8494 17.713C18.8494 18.0144 18.7297 18.3034 18.5166 18.5165C18.3035 18.7296 18.0144 18.8493 17.713 18.8493C17.4117 18.8493 17.1226 18.7296 16.9095 18.5165L9.67773 11.2847L2.44596 18.5165C2.23285 18.7296 1.94381 18.8493 1.64243 18.8493C1.34105 18.8493 1.05201 18.7296 0.838899 18.5165C0.62579 18.3034 0.506065 18.0144 0.506066 17.713C0.506066 17.4116 0.62579 17.1226 0.838899 16.9094L8.07067 9.67767L0.838899 2.4459C0.625789 2.23279 0.506066 1.94375 0.506066 1.64237C0.506066 1.34098 0.62579 1.05194 0.838899 0.838835C1.05201 0.625726 1.34105 0.506002 1.64243 0.506003C1.94381 0.506002 2.23285 0.625726 2.44596 0.838835L9.67773 8.07061L16.9095 0.838835C17.1226 0.625726 17.4117 0.506002 17.713 0.506003C18.0144 0.506002 18.3035 0.625726 18.5166 0.838835Z" fill="#E4101A"/>
</svg>
