<svg width="25" height="25" viewBox="0 0 25 25" fill="none" xmlns="http://www.w3.org/2000/svg">
<path d="M18.0208 6.56249C17.9245 6.46593 17.81 6.38932 17.684 6.33704C17.558 6.28477 17.4229 6.25786 17.2864 6.25786C17.15 6.25786 17.0149 6.28477 16.8889 6.33704C16.7629 6.38932 16.6484 6.46593 16.5521 6.56249L10.6771 12.4375L12.1458 13.9062L18.0208 8.02083C18.4167 7.62499 18.4167 6.95833 18.0208 6.56249ZM22.4375 6.55208L12.1458 16.8437L8.52082 13.2292C8.32606 13.0344 8.06189 12.925 7.78645 12.925C7.511 12.925 7.24684 13.0344 7.05207 13.2292C6.8573 13.4239 6.74789 13.6881 6.74789 13.9635C6.74789 14.239 6.8573 14.5031 7.05207 14.6979L11.4062 19.0521C11.8125 19.4583 12.4687 19.4583 12.875 19.0521L23.9062 8.03124C24.0028 7.93488 24.0794 7.82041 24.1317 7.69439C24.184 7.56838 24.2109 7.43329 24.2109 7.29687C24.2109 7.16044 24.184 7.02536 24.1317 6.89934C24.0794 6.77333 24.0028 6.65886 23.9062 6.56249H23.8958C23.8018 6.46416 23.6891 6.38571 23.5642 6.33179C23.4393 6.27788 23.3049 6.24959 23.1689 6.24862C23.0328 6.24765 22.898 6.27401 22.7724 6.32614C22.6467 6.37827 22.5329 6.4551 22.4375 6.55208ZM1.16666 14.7083L5.52082 19.0625C5.92707 19.4687 6.58332 19.4687 6.98957 19.0625L7.71874 18.3333L2.63541 13.2292C2.53904 13.1326 2.42457 13.056 2.29856 13.0037C2.17254 12.9514 2.03746 12.9245 1.90103 12.9245C1.76461 12.9245 1.62952 12.9514 1.50351 13.0037C1.37749 13.056 1.26302 13.1326 1.16666 13.2292C0.760407 13.6354 0.760407 14.3021 1.16666 14.7083Z" fill="#E4101A"/>
</svg>
