<svg width="85" height="255" viewBox="0 0 85 255" fill="none" xmlns="http://www.w3.org/2000/svg">
<path d="M73.6486 108.889L60.3918 115.556V102.222L73.6486 108.889Z" fill="url(#paint0_linear_515_7136)"/>
<path d="M85.4324 1.48148L83.9595 0.766284L85.4324 0V1.48148Z" fill="url(#paint1_linear_515_7136)"/>
<path d="M67.7568 37.037L63.3379 40V34.0741L67.7568 37.037Z" fill="url(#paint2_linear_515_7136)"/>
<path d="M26.5136 114.074L16.2028 108.173L26.5136 102.222V114.074Z" fill="url(#paint3_linear_515_7136)"/>
<path d="M70.7027 180.741L61.8649 186.667V174.815L70.7027 180.741Z" fill="url(#paint4_linear_515_7136)"/>
<path d="M25.0405 38.5185L20.6216 36.2743L25.0405 34.0741V38.5185Z" fill="url(#paint5_linear_515_7136)"/>
<path d="M7.36486 72.5926L0 77.037V68.1481L7.36486 72.5926Z" fill="url(#paint6_linear_515_7136)"/>
<path d="M7.36486 145.185L0 149.63V140.741L7.36486 145.185Z" fill="url(#paint7_linear_515_7136)"/>
<path d="M25.0406 185.185L19.1487 181.481L25.0406 177.778V185.185Z" fill="url(#paint8_linear_515_7136)"/>
<path d="M67.7568 252.593L63.3379 254.815V250.37L67.7568 252.593Z" fill="url(#paint9_linear_515_7136)"/>
<path d="M4.41897 217.021L1.47302 217.778V216.296L4.41897 217.021Z" fill="url(#paint10_linear_515_7136)"/>
<defs>
<linearGradient id="paint0_linear_515_7136" x1="-223.666" y1="359.052" x2="473.344" y2="-440.142" gradientUnits="userSpaceOnUse">
<stop stop-color="#B81F26"/>
<stop offset="0.59" stop-color="#D4151E"/>
<stop offset="1" stop-color="#E4101A"/>
</linearGradient>
<linearGradient id="paint1_linear_515_7136" x1="-306.732" y1="340.485" x2="454.095" y2="-537.005" gradientUnits="userSpaceOnUse">
<stop stop-color="#B81F26"/>
<stop offset="0.59" stop-color="#D4151E"/>
<stop offset="1" stop-color="#E4101A"/>
</linearGradient>
<linearGradient id="paint2_linear_515_7136" x1="-199.631" y1="342.976" x2="549.592" y2="-303.352" gradientUnits="userSpaceOnUse">
<stop stop-color="#B81F26"/>
<stop offset="0.59" stop-color="#D4151E"/>
<stop offset="1" stop-color="#E4101A"/>
</linearGradient>
<linearGradient id="paint3_linear_515_7136" x1="-223.636" y1="355.029" x2="524.61" y2="-396.557" gradientUnits="userSpaceOnUse">
<stop stop-color="#B81F26"/>
<stop offset="0.59" stop-color="#D4151E"/>
<stop offset="1" stop-color="#E4101A"/>
</linearGradient>
<linearGradient id="paint4_linear_515_7136" x1="-148.057" y1="426.72" x2="641.393" y2="-253.001" gradientUnits="userSpaceOnUse">
<stop stop-color="#B81F26"/>
<stop offset="0.59" stop-color="#D4151E"/>
<stop offset="1" stop-color="#E4101A"/>
</linearGradient>
<linearGradient id="paint5_linear_515_7136" x1="-264.983" y1="286.747" x2="392.356" y2="-471.988" gradientUnits="userSpaceOnUse">
<stop stop-color="#B81F26"/>
<stop offset="0.59" stop-color="#D4151E"/>
<stop offset="1" stop-color="#E4101A"/>
</linearGradient>
<linearGradient id="paint6_linear_515_7136" x1="-242.658" y1="327.574" x2="509.896" y2="-393.126" gradientUnits="userSpaceOnUse">
<stop stop-color="#B81F26"/>
<stop offset="0.59" stop-color="#D4151E"/>
<stop offset="1" stop-color="#E4101A"/>
</linearGradient>
<linearGradient id="paint7_linear_515_7136" x1="-208.32" y1="364.361" x2="544.533" y2="-356.625" gradientUnits="userSpaceOnUse">
<stop stop-color="#B81F26"/>
<stop offset="0.59" stop-color="#D4151E"/>
<stop offset="1" stop-color="#E4101A"/>
</linearGradient>
<linearGradient id="paint8_linear_515_7136" x1="-172.016" y1="394.344" x2="580.551" y2="-297.781" gradientUnits="userSpaceOnUse">
<stop stop-color="#B81F26"/>
<stop offset="0.59" stop-color="#D4151E"/>
<stop offset="1" stop-color="#E4101A"/>
</linearGradient>
<linearGradient id="paint9_linear_515_7136" x1="-170.626" y1="455.9" x2="600.531" y2="-435.163" gradientUnits="userSpaceOnUse">
<stop stop-color="#B81F26"/>
<stop offset="0.59" stop-color="#D4151E"/>
<stop offset="1" stop-color="#E4101A"/>
</linearGradient>
<linearGradient id="paint10_linear_515_7136" x1="-262.297" y1="332.987" x2="87.994" y2="-465.454" gradientUnits="userSpaceOnUse">
<stop stop-color="#B81F26"/>
<stop offset="0.59" stop-color="#D4151E"/>
<stop offset="1" stop-color="#E4101A"/>
</linearGradient>
</defs>
</svg>
