<svg width="25" height="25" viewBox="0 0 25 25" fill="none" xmlns="http://www.w3.org/2000/svg">
<g id="entypo:email" clip-path="url(#clip0_805_1170)">
<path id="Vector" d="M18.2601 15.2149C18.2601 16.2649 18.5588 16.6837 19.3401 16.6837C21.0813 16.6837 22.1901 14.4649 22.1901 10.7749C22.1901 5.13492 18.0801 2.43492 12.9488 2.43492C7.67006 2.43492 2.86881 5.97492 2.86881 12.6649C2.86881 19.0549 7.06881 22.5349 13.5188 22.5349C15.7088 22.5349 17.1788 22.2949 19.4276 21.5449L19.9101 23.5537C17.6901 24.2749 15.3176 24.4837 13.4888 24.4837C5.02881 24.4837 0.497559 19.8337 0.497559 12.6637C0.497559 5.43367 5.74881 0.513672 12.9788 0.513672C20.5088 0.513672 24.4976 5.01367 24.4976 10.5337C24.4976 15.2137 23.0288 18.7837 18.4088 18.7837C16.3076 18.7837 14.9288 17.9437 14.7488 16.0824C14.2088 18.1524 12.7688 18.7837 10.8176 18.7837C8.20756 18.7837 6.01756 16.7724 6.01756 12.7237C6.01756 8.64367 7.93881 6.12367 11.3888 6.12367C13.2188 6.12367 14.3588 6.84367 14.8663 7.98367L15.7376 6.39367H18.2576V15.2149H18.2601ZM14.5713 11.2549C14.5713 9.60617 13.3401 8.91492 12.3201 8.91492C11.2101 8.91492 9.98131 9.81367 9.98131 12.4549C9.98131 14.5549 10.9113 15.7249 12.3201 15.7249C13.3101 15.7249 14.5713 15.0949 14.5713 13.3549V11.2549Z" fill="#F5F6F0"/>
</g>
<defs>
<clipPath id="clip0_805_1170">
<rect width="25" height="25" fill="white"/>
</clipPath>
</defs>
</svg>
